<?xml version="1.0" standalone="no"?>
<!DOCTYPE svg PUBLIC "-//W3C//DTD SVG 20010904//EN"
 "http://www.w3.org/TR/2001/REC-SVG-20010904/DTD/svg10.dtd">
<svg version="1.0" xmlns="http://www.w3.org/2000/svg"
 width="616.000000pt" height="616.000000pt" viewBox="0 0 616.000000 616.000000"
 preserveAspectRatio="xMidYMid meet">
<metadata>
Created by potrace 1.11, written by Peter Selinger 2001-2013
</metadata>
<g transform="translate(0.000000,616.000000) scale(0.100000,-0.100000)"
fill="#000000" stroke="none">
<path d="M1872 5798 c-162 -18 -285 -57 -427 -135 -71 -40 -192 -129 -237
-175 -15 -15 -29 -28 -31 -28 -6 0 -220 -215 -257 -258 -17 -20 -50 -59 -73
-86 -266 -311 -494 -682 -672 -1091 -7 -16 -24 -61 -38 -100 -14 -38 -35 -96
-46 -128 -35 -97 -25 -140 33 -151 53 -10 72 8 102 99 40 120 108 285 177 425
71 146 176 334 188 338 5 2 9 9 9 16 0 21 276 415 320 456 3 3 30 34 59 70 67
80 296 310 371 372 111 91 278 178 393 203 10 2 26 6 35 9 53 16 252 24 311
12 14 -3 41 -8 60 -11 43 -7 139 -40 200 -67 129 -59 268 -183 338 -299 38
-63 80 -175 90 -239 22 -136 -3 -320 -62 -444 -13 -28 -29 -62 -34 -76 -6 -14
-15 -32 -20 -40 -6 -8 -46 -78 -91 -155 -104 -179 -86 -151 -221 -354 -98
-148 -195 -283 -311 -436 -24 -30 -139 -172 -180 -221 -13 -15 -47 -53 -75
-83 -41 -43 -53 -63 -53 -88 0 -38 -25 -18 455 -376 171 -127 316 -237 323
-244 7 -7 16 -13 20 -13 4 0 21 -13 38 -28 17 -15 46 -38 64 -52 18 -14 42
-33 53 -43 64 -55 156 -87 231 -81 36 3 116 47 116 63 0 4 8 16 19 27 20 22
61 137 67 187 2 18 5 43 8 57 3 14 7 58 10 99 3 40 7 75 8 77 2 1 17 -3 33
-11 65 -30 124 -55 129 -55 5 0 72 -29 156 -68 49 -23 106 -21 124 3 21 28 20
45 -8 117 -31 78 -99 298 -95 302 10 8 454 124 460 121 4 -3 4 -35 2 -72 -13
-153 -6 -548 12 -743 9 -92 16 -161 25 -230 15 -120 26 -216 35 -305 3 -27 8
-61 10 -75 2 -14 7 -52 10 -85 3 -33 8 -82 11 -110 8 -65 11 -95 18 -185 4
-41 9 -95 11 -120 42 -465 10 -748 -92 -788 -53 -21 -81 -21 -192 2 -181 38
-413 175 -564 331 -129 133 -186 257 -181 388 7 148 82 248 234 308 30 12 63
31 73 42 23 26 22 68 -4 96 -18 19 -29 22 -62 18 -45 -6 -207 -82 -207 -97 0
-6 -5 -10 -11 -10 -35 0 -138 -158 -155 -240 -9 -39 -10 -212 -2 -250 9 -42
57 -152 85 -195 102 -152 224 -263 428 -390 32 -21 64 -38 70 -39 5 -1 24 -9
40 -18 37 -19 196 -76 233 -83 15 -3 38 -7 52 -11 14 -3 52 -5 85 -5 193 2
291 127 320 406 4 45 5 319 1 380 -16 229 -25 327 -41 468 -2 15 -7 62 -10
105 -4 42 -9 85 -11 96 -2 10 -6 44 -9 75 -4 31 -8 67 -10 81 -2 14 -7 52 -10
85 -4 33 -8 71 -10 85 -2 14 -7 54 -10 90 -3 36 -8 83 -10 105 -24 212 -24
804 -1 930 2 11 7 49 10 85 4 36 9 76 11 90 1 14 6 48 9 75 4 28 9 58 12 68 3
10 7 30 9 45 3 15 7 38 9 52 3 14 8 39 12 55 15 74 79 287 106 357 27 68 29
81 19 106 -17 42 -53 56 -95 38 -26 -11 -40 -27 -59 -69 -47 -104 -147 -179
-352 -268 -26 -12 -103 -38 -113 -39 -27 -2 -81 -22 -90 -33 -22 -27 -23 -73
-3 -98 15 -19 28 -24 63 -23 64 2 195 47 329 114 32 16 59 26 62 23 3 -3 2
-16 -3 -29 -6 -14 -12 -35 -14 -47 -3 -12 -7 -33 -10 -47 -19 -86 -33 -167
-41 -230 -10 -87 -10 -88 -41 -94 -11 -2 -44 -11 -75 -20 -31 -9 -65 -19 -75
-21 -11 -2 -43 -11 -72 -19 -29 -8 -53 -14 -55 -15 -1 0 -9 -2 -17 -5 -8 -3
-51 -14 -95 -26 -44 -12 -87 -23 -97 -26 -13 -4 -26 24 -68 153 -106 326 -169
409 -268 354 -25 -13 -57 -76 -66 -126 -19 -115 -22 -149 -31 -315 -4 -69 -8
-138 -9 -155 -2 -28 -7 -31 -67 -49 -35 -10 -65 -22 -67 -26 -2 -5 -11 -6 -21
-3 -47 12 -91 -50 -72 -100 6 -15 23 -32 38 -38 31 -12 78 -31 140 -60 25 -11
41 -24 38 -31 -2 -7 -6 -51 -10 -98 -10 -152 -18 -195 -46 -256 -31 -66 -78
-69 -164 -10 -55 38 -290 220 -293 228 -2 5 -9 8 -15 8 -6 0 -22 11 -36 24
-15 13 -129 101 -256 196 -126 94 -234 178 -239 185 -7 9 0 25 25 52 19 21 48
56 64 77 17 22 46 58 65 81 51 62 58 71 135 175 38 52 73 97 77 98 5 2 8 9 8
15 0 6 8 20 18 31 44 49 292 428 292 446 0 6 3 10 8 10 4 0 12 10 18 23 6 12
35 63 64 112 80 137 132 231 135 245 1 3 9 23 19 45 10 22 19 47 21 55 2 8 11
40 19 70 39 139 42 326 8 460 -24 92 -91 237 -122 265 -11 10 -20 22 -20 27 0
15 -121 136 -179 178 -207 151 -476 225 -719 198z m1372 -2432 c26 -77 44
-146 41 -154 -3 -8 -8 -12 -11 -10 -3 3 -26 -1 -51 -8 -25 -8 -50 -14 -55 -14
-8 0 -6 54 8 220 3 36 7 74 9 85 2 11 4 22 4 24 2 12 13 -15 55 -143z m116
-387 c10 -41 22 -84 26 -97 7 -24 -1 -21 -188 68 -75 35 -66 52 45 82 50 14
93 24 94 23 2 -1 12 -35 23 -76z"/>
<path d="M1381 4803 c-19 -17 -41 -83 -56 -173 -42 -252 -46 -820 -9 -1225 2
-22 6 -76 9 -120 3 -44 7 -91 10 -105 3 -14 7 -54 10 -90 3 -35 7 -76 10 -90
2 -14 7 -50 10 -80 4 -30 8 -65 10 -78 1 -12 6 -50 10 -85 10 -78 10 -83 19
-137 4 -25 9 -58 11 -75 2 -16 4 -30 5 -30 1 0 3 -9 4 -20 12 -94 19 -142 22
-160 2 -11 7 -36 10 -55 2 -19 8 -48 11 -65 3 -16 7 -39 8 -50 1 -11 5 -36 9
-55 18 -93 48 -267 50 -285 1 -11 5 -29 9 -40 3 -11 8 -38 12 -59 3 -21 7 -48
10 -60 3 -12 7 -34 10 -51 28 -150 27 -174 -12 -255 -34 -71 -35 -78 -16 -107
22 -33 47 -45 75 -34 46 17 103 131 115 231 3 25 7 52 8 60 1 8 -1 22 -5 30
-4 8 -10 33 -13 55 -3 22 -12 76 -21 120 -38 192 -47 237 -52 275 -3 19 -6 44
-8 55 -11 60 -19 102 -23 120 -2 11 -6 36 -9 55 -3 19 -7 46 -10 60 -2 14 -9
56 -14 94 -6 38 -12 78 -15 90 -2 12 -7 44 -10 71 -5 48 -9 73 -20 140 -3 17
-7 55 -10 85 -4 30 -9 69 -12 85 -2 17 -6 48 -8 70 -2 22 -7 60 -10 85 -3 25
-8 68 -10 95 -3 28 -8 75 -11 105 -7 55 -7 65 -19 220 -3 47 -7 103 -10 125
-2 22 -7 130 -10 240 -4 110 -8 202 -10 204 -3 2 0 11 5 21 5 10 6 20 3 24 -4
3 -6 32 -4 64 2 55 2 67 0 95 -2 33 20 335 27 370 2 12 7 44 10 71 3 27 9 59
13 70 20 56 -13 116 -64 116 -13 0 -32 -8 -44 -17z"/>
<path d="M5745 4588 c-27 -21 -31 -51 -13 -95 6 -15 12 -30 12 -33 1 -3 4 -10
8 -16 22 -35 104 -260 133 -369 44 -162 56 -245 57 -395 2 -173 -24 -287 -91
-392 -24 -37 -37 -48 -66 -54 -99 -18 -307 123 -376 256 -13 25 -27 47 -30 50
-22 20 -68 185 -74 272 -8 99 -15 126 -42 154 -20 22 -30 25 -61 21 -46 -8
-68 -34 -88 -106 -34 -123 -85 -219 -158 -298 l-24 -25 -6 28 c-4 16 -9 43
-11 59 -3 17 -14 75 -25 130 -11 55 -22 111 -25 125 -3 14 -7 36 -10 50 -4 22
-10 55 -21 115 -2 11 -5 27 -7 35 -4 18 -17 78 -21 100 -15 90 -34 120 -76
120 -15 0 -40 -10 -55 -21 l-27 -22 8 -101 c9 -128 9 -245 1 -366 -8 -98 -8
-104 -27 -230 -6 -41 -13 -88 -15 -104 -3 -15 -7 -35 -9 -45 -3 -9 -8 -31 -11
-50 -5 -31 -24 -76 -25 -59 0 4 -24 -3 -52 -16 -29 -12 -91 -33 -137 -46 -69
-19 -86 -28 -101 -53 -14 -23 -16 -35 -8 -58 12 -36 40 -51 139 -73 41 -10 81
-21 88 -25 13 -9 -29 -135 -94 -277 -32 -71 -33 -73 -17 -105 19 -37 47 -50
80 -38 22 8 67 91 97 179 1 3 6 14 10 25 5 11 21 56 36 100 16 46 33 81 42 83
8 2 70 -11 138 -29 171 -43 171 -43 203 -18 26 20 28 26 22 74 -3 28 -7 58
-10 66 -3 8 -7 32 -10 54 -3 22 -8 51 -11 65 -3 14 -11 54 -16 90 l-10 65 85
88 c47 49 88 97 91 108 10 32 24 11 20 -29 -2 -21 -6 -107 -10 -192 -3 -85 -8
-184 -10 -220 -7 -100 21 -143 85 -133 59 9 65 29 75 258 2 50 4 91 4 93 1 2
34 -30 74 -71 83 -85 159 -136 266 -180 97 -39 157 -40 227 -4 97 49 166 161
204 332 33 148 31 342 -5 525 -3 14 -7 34 -9 45 -31 163 -168 529 -217 581
-25 27 -62 28 -94 2z m-956 -1102 c1 -31 -2 -45 -13 -49 -13 -5 -15 0 -12 26
2 18 4 40 5 50 2 36 17 15 20 -27z m54 -284 c8 -45 11 -82 8 -82 -3 0 -40 7
-82 16 l-76 17 9 36 c8 30 19 41 66 68 31 17 58 30 59 29 1 0 8 -38 16 -84z"/>
</g>
</svg>
