<?xml version="1.0" encoding="iso-8859-1"?>
<!-- Generator: Adobe Illustrator 19.0.0, SVG Export Plug-In . SVG Version: 6.00 Build 0)  -->
<svg version="1.1" id="Capa_1" xmlns="http://www.w3.org/2000/svg" xmlns:xlink="http://www.w3.org/1999/xlink" x="0px" y="0px"
	 viewBox="0 0 512.001 512.001" style="enable-background:new 0 0 512.001 512.001;" xml:space="preserve">
<g>
	<g>
		<path d="M501.996,374.004h-33.999v-23.828c0-16.749-7.168-32.063-18.823-42.747V197.666c0-49.247-40.9-89.312-91.174-89.312
			s-91.173,40.065-91.173,89.312v109.761c-11.656,10.683-18.823,25.998-18.823,42.747v23.829h-20.499c-5.523,0-10,4.478-10,10
			s4.477,10,10,10h30.499h16V458c0,5.522,4.477,10,10,10h34.999c5.523,0,10-4.478,10-10s-4.477-10-10-10h-24.999v-53.999h127.997
			v53.999h-26.999c-5.523,0-10,4.478-10,10s4.477,10,10,10h36.999c5.523,0,10-4.478,10-10v-63.998h16h33.999V492H244.003v-32.27
			c0-30.725-21.928-57.078-52.142-62.664l-26.259-4.854c-1.246-0.23-2.411-0.656-3.483-1.224c-0.608-0.52-1.278-0.958-1.989-1.318
			c-2.714-2.218-4.423-5.564-4.469-9.26c20.493-11.727,34.343-33.793,34.343-59.048v-38.597c0-37.494-30.504-67.998-67.998-67.998
			s-67.998,30.504-67.998,67.998v38.597c0,25.249,13.844,47.312,34.329,59.04c-0.044,3.712-1.765,7.072-4.498,9.291
			c-0.686,0.352-1.334,0.775-1.924,1.276c-1.082,0.579-2.26,1.011-3.52,1.244l-26.247,4.854
			c-30.212,5.586-52.141,31.939-52.141,62.664v42.271c0,5.522,4.477,10,10,10h223.994h267.993c5.523,0,10-4.478,10-10V384.005
			C511.996,378.481,507.519,374.004,501.996,374.004z M286.825,197.666h0.001c0-38.219,31.928-69.312,71.174-69.312
			s71.174,31.094,71.174,69.312v97.803c-2.774-0.969-5.644-1.749-8.609-2.297l-23.445-4.335c-4.216-0.78-7.372-4.196-7.914-8.353
			c18.398-10.766,30.792-30.726,30.792-53.539v-32.187c0-3.546-1.877-6.826-4.935-8.622l-34.785-20.436
			c-4.213-2.476-9.594-1.544-12.73,2.199c-8.979,10.714-22.145,16.859-36.124,16.859H306c-5.523,0-10,4.478-10,10v32.187
			c0,22.807,12.388,42.764,30.78,53.532c-0.539,4.161-3.696,7.58-7.914,8.361l-23.435,4.333c-2.964,0.548-5.834,1.328-8.607,2.297
			V197.666z M377.448,264.153c-1.735,0.292-3.319,1.021-4.628,2.084c-4.612,1.746-9.605,2.709-14.821,2.709
			c-5.227,0-10.229-0.968-14.849-2.72c-1.302-1.052-2.874-1.777-4.595-2.07c-13.393-7.027-22.555-21.064-22.555-37.209v-22.187
			h15.425c17.03,0,33.215-6.404,45.544-17.807l23.029,13.529v26.465C399.999,243.088,390.839,257.124,377.448,264.153z
			 M377.737,300.173l-19.732,26.918l-19.747-26.927c3.416-3.452,5.968-7.725,7.376-12.462c3.998,0.813,8.133,1.242,12.366,1.242
			c4.229,0,8.36-0.429,12.354-1.24C371.761,292.443,374.317,296.719,377.737,300.173z M447.997,374.004h-16H284.002h-16v-23.829
			c0-18.307,13.066-34.01,31.066-37.338l20.852-3.855l30.021,40.937c1.884,2.568,4.879,4.086,8.065,4.086s6.181-1.519,8.064-4.088
			l30.007-40.934l20.851,3.855c18.002,3.329,31.068,19.031,31.068,37.338V374.004z M74.008,321.36v-38.597
			c0-26.467,21.532-47.999,47.999-47.999c26.466,0,47.999,21.531,47.999,47.999v38.597c0,26.467-21.532,47.999-47.999,47.999
			C95.54,369.359,74.008,347.828,74.008,321.36z M138.34,393.108l-16.333,4.657l-16.346-4.661c0.746-1.709,1.347-3.491,1.789-5.332
			c4.691,1.029,9.559,1.586,14.556,1.586c4.992,0,9.855-0.556,14.544-1.582C136.992,389.617,137.593,391.399,138.34,393.108z
			 M224.002,492.001H20.008v-16h0.001h68.388c5.523,0,10-4.478,10-10s-4.477-10-10-10H20.17
			c1.652-19.456,16.119-35.666,35.615-39.271l26.247-4.854c2.743-0.507,5.347-1.358,7.779-2.495l29.452,8.399
			c0.896,0.256,1.819,0.384,2.742,0.384s1.846-0.128,2.742-0.384l29.444-8.396c2.431,1.136,5.033,1.986,7.774,2.493l26.259,4.854
			c20.73,3.833,35.778,21.916,35.778,42.999V492.001z"/>
	</g>
</g>
<g>
	<g>
		<path d="M266.501,0H141.505c-21.779,0-39.499,17.72-39.499,39.499v14.514H39.507c-21.779,0-39.499,17.72-39.499,39.499v54.998
			c0.001,21.779,17.721,39.499,39.5,39.499h0.5v33.749c0,4.045,2.437,7.691,6.173,9.239c1.237,0.512,2.536,0.761,3.824,0.761
			c2.603,0,5.161-1.016,7.074-2.929l40.82-40.82h66.606c21.779,0,39.499-17.719,39.499-39.499v-24.513h15.524l29.403,29.404
			c1.914,1.913,4.471,2.929,7.074,2.929c1.288,0,2.587-0.249,3.824-0.761c3.737-1.548,6.173-5.194,6.173-9.239v-22.333h0.5
			c21.779,0,39.499-17.72,39.499-39.499V39.499C306,17.72,288.281,0,266.501,0z M184.004,148.51
			c0,10.752-8.748,19.499-19.499,19.499H93.757c-2.652,0-5.196,1.054-7.071,2.929l-26.678,26.678V178.01c0-5.522-4.477-10-10-10
			h-10.5c-10.752,0-19.499-8.748-19.499-19.499v-55c0-10.752,8.748-19.5,19.499-19.5h124.997c10.752,0,19.499,8.748,19.499,19.5
			V148.51z M286.002,84.498c0,10.752-8.748,19.499-19.499,19.499h-10.5c-5.523,0-10,4.478-10,10v8.191l-15.262-15.263
			c-1.875-1.875-4.419-2.929-7.071-2.929h-19.666V93.511c0-21.779-17.72-39.499-39.499-39.499h-42.499V39.499
			c0-10.752,8.748-19.499,19.499-19.499h124.997c10.752,0,19.499,8.748,19.499,19.499V84.498z"/>
	</g>
</g>
<g>
	<g>
		<path d="M342.52,216.318c-1.86-1.859-4.44-2.93-7.07-2.93c-2.63,0-5.21,1.07-7.07,2.93c-1.86,1.86-2.93,4.44-2.93,7.07
			c0,2.64,1.07,5.21,2.93,7.07c1.86,1.869,4.44,2.93,7.07,2.93c2.63,0,5.21-1.061,7.07-2.93c1.86-1.86,2.93-4.441,2.93-7.07
			C345.45,220.758,344.38,218.178,342.52,216.318z"/>
	</g>
</g>
<g>
	<g>
		<path d="M387.619,216.318c-1.86-1.86-4.44-2.93-7.07-2.93s-5.21,1.07-7.07,2.93c-1.86,1.86-2.93,4.44-2.93,7.07
			c0,2.63,1.07,5.21,2.93,7.07c1.86,1.869,4.44,2.93,7.07,2.93s5.21-1.061,7.07-2.93c1.86-1.86,2.93-4.44,2.93-7.07
			C390.549,220.758,389.479,218.178,387.619,216.318z"/>
	</g>
</g>
<g>
	<g>
		<path d="M373.351,239.023c-3.904-3.905-10.236-3.905-14.142-0.001c-0.725,0.726-1.905,0.725-2.629,0
			c-3.905-3.906-10.238-3.905-14.142,0.001c-3.905,3.905-3.905,10.236,0,14.142c4.261,4.261,9.859,6.392,15.456,6.392
			c5.598,0,11.195-2.131,15.457-6.392C377.256,249.259,377.257,242.928,373.351,239.023z"/>
	</g>
</g>
<g>
	<g>
		<path d="M365.079,450.932c-1.87-1.86-4.44-2.93-7.07-2.93c-2.64,0-5.21,1.069-7.08,2.93c-1.86,1.86-2.93,4.44-2.93,7.07
			c0,2.63,1.07,5.21,2.93,7.069c1.87,1.86,4.44,2.931,7.08,2.931c2.63,0,5.201-1.071,7.07-2.931c1.86-1.859,2.93-4.439,2.93-7.069
			C368.008,455.372,366.938,452.792,365.079,450.932z"/>
	</g>
</g>
<g>
	<g>
		<path d="M128.006,93.011H50.008c-5.523,0-10,4.478-10,10s4.477,10,10,10h77.998c5.523,0,10-4.478,10-10
			S133.529,93.011,128.006,93.011z"/>
	</g>
</g>
<g>
	<g>
		<path d="M160.075,131.94c-1.86-1.86-4.44-2.93-7.07-2.93s-5.21,1.069-7.07,2.93c-1.86,1.86-2.93,4.44-2.93,7.07
			c0,2.63,1.07,5.21,2.93,7.069c1.86,1.86,4.439,2.931,7.07,2.931c2.63,0,5.21-1.07,7.07-2.931c1.86-1.859,2.93-4.439,2.93-7.069
			C163.005,136.38,161.935,133.8,160.075,131.94z"/>
	</g>
</g>
<g>
	<g>
		<path d="M116.006,129.01H50.008c-5.523,0-10,4.478-10,10s4.477,10,10,10h65.998c5.523,0,10-4.478,10-10
			S121.529,129.01,116.006,129.01z"/>
	</g>
</g>
<g>
	<g>
		<path d="M130.336,458.931c-1.86-1.861-4.43-2.93-7.07-2.93c-2.63,0-5.21,1.069-7.07,2.93c-1.86,1.86-2.93,4.44-2.93,7.07
			s1.07,5.21,2.93,7.069c1.86,1.86,4.44,2.931,7.07,2.931c2.64,0,5.21-1.07,7.07-2.931c1.87-1.859,2.94-4.439,2.94-7.069
			S132.206,460.791,130.336,458.931z"/>
	</g>
</g>
<g>
</g>
<g>
</g>
<g>
</g>
<g>
</g>
<g>
</g>
<g>
</g>
<g>
</g>
<g>
</g>
<g>
</g>
<g>
</g>
<g>
</g>
<g>
</g>
<g>
</g>
<g>
</g>
<g>
</g>
</svg>
