<svg width="150" height="53" viewBox="0 0 150 53" fill="none" xmlns="http://www.w3.org/2000/svg">
<g clip-path="url(#clip0_4121_923)">
<mask id="mask0_4121_923" style="mask-type:luminance" maskUnits="userSpaceOnUse" x="15" y="11" width="120" height="31">
<path d="M135 11.5H15V41.5H135V11.5Z" fill="white"/>
</mask>
<g mask="url(#mask0_4121_923)">
<path d="M60.2753 24.7307C59.9493 23.4223 59.4731 20.8297 56.7424 20.8297C55.3138 20.8297 54.2366 21.8052 54.2366 23.3962C54.2366 27.3484 62.2549 27.092 62.2549 32.5829C62.2549 36.2265 59.0971 37.561 56.0904 37.561C53.9106 37.561 52.4819 36.9707 51.6797 36.5342C51.0779 34.9181 50.9531 33.7626 50.9531 31.71L52.1314 31.4536C52.4819 32.9933 53.3087 36.5855 56.5166 36.5855C58.0955 36.5855 59.1481 35.4562 59.1481 33.7375C59.1481 29.401 51.3802 29.7339 51.3802 24.4733C51.3802 21.2149 53.7358 19.8542 56.9682 19.8542C58.8476 19.8542 59.9749 20.2646 60.9027 20.8036C61.103 22.0607 61.1786 23.4213 61.1786 24.7297L60.2753 24.7307Z" fill="white"/>
<path d="M72.3745 36.253C71.6224 36.7146 70.4451 37.5614 68.5657 37.5614C64.6813 37.5614 64.5065 35.2523 64.5065 32.4033V28.6823C64.5065 27.7843 64.5065 26.6298 63.7553 26.6298C63.3793 26.6298 63.0542 26.7575 62.9531 26.7836V26.0394C64.8325 25.3978 66.2111 25.1927 67.5141 25.1162V32.3269C67.5141 34.3543 67.8901 36.073 70.3459 36.073C71.2983 36.073 71.8747 35.6114 72.2253 35.4314V28.6823C72.2253 27.7843 72.2252 26.6298 71.4741 26.6298C71.098 26.6298 70.773 26.7575 70.6719 26.7836V26.0394C72.5512 25.3978 73.9298 25.1927 75.2328 25.1162V32.7885C75.2328 34.8933 75.2328 35.894 76.0851 35.894C76.2353 35.894 76.5358 35.9191 76.7862 35.8688L76.8363 36.5356C75.6835 36.9459 74.3049 37.3059 73.053 37.5623L72.3745 36.253Z" fill="white"/>
<path d="M79.2331 28.6823C79.2331 27.7843 79.2331 26.6298 78.4819 26.6298C78.1058 26.6298 77.7798 26.7575 77.6797 26.7836V26.0394C79.5591 25.3978 80.8876 25.1927 82.1905 25.1162V26.6046C82.817 26.0404 84.0198 25.1162 86.1496 25.1162C88.405 25.1162 89.9329 26.2194 89.9329 29.684V34.7394C89.9329 36.0991 90.0586 36.3817 90.96 36.4591L91.4863 36.5104V37.1772H85.372V36.5104L85.8983 36.4591C86.8006 36.3817 86.9254 36.0991 86.9254 34.7394V31.0959C86.9254 29.0685 86.9253 26.6056 84.3194 26.6056C83.2923 26.6056 82.6403 27.1446 82.2397 27.581V34.7404C82.2397 36.1001 82.3644 36.3827 83.2668 36.4601L83.7931 36.5114V37.1781H77.7288V36.5114L78.2551 36.4601C79.1074 36.3827 79.2321 36.1001 79.2321 34.7404L79.2331 28.6823Z" fill="white"/>
<path d="M96.0469 36.5095L96.6478 36.4321C97.8261 36.2008 97.8261 36.3042 97.8261 33.3787V23.9607C97.8261 21.4716 97.8261 21.163 96.6478 20.9839L96.0469 20.9065V20.2397H102.862V20.9065L102.26 20.9839C101.083 21.1639 101.083 21.4716 101.083 23.9607V35.8416C101.834 36.0216 102.612 36.2008 103.389 36.2008C106.922 36.2008 106.947 34.4559 107.674 32.3259L108.576 32.5058C108.426 34.1742 108.25 35.5339 107.699 37.1761H96.0469V36.5095Z" fill="white"/>
<path d="M109.152 36.5096L109.679 36.4582C110.581 36.3556 110.706 36.0983 110.706 34.7386V28.6824C110.706 27.7843 110.706 26.6298 109.954 26.6298C109.578 26.6298 109.253 26.7575 109.152 26.7837V26.0396C111.032 25.398 112.411 25.1927 113.714 25.1162V34.7386C113.714 36.0983 113.838 36.3546 114.741 36.4582L115.267 36.5096V37.1762H109.152V36.5096ZM110.28 21.164C110.28 20.1886 111.032 19.3931 112.034 19.3931C112.986 19.3931 113.788 20.1886 113.788 21.164C113.788 22.2421 112.986 22.9862 112.034 22.9862C111.032 22.9862 110.28 22.2159 110.28 21.164Z" fill="white"/>
<path d="M117.803 25.4973C117.803 21.9302 119.533 18.3118 123.467 18.3118C124.795 18.3118 125.647 18.7221 126.198 19.1585C126.022 19.954 125.822 20.4418 125.195 21.0834H125.019C124.543 20.6218 123.39 19.595 122.413 19.595C120.91 19.595 120.81 21.6737 120.81 24.0341V25.4963C121.562 25.5215 123.09 25.625 123.918 25.7276V26.3944C122.841 26.5231 121.863 26.5995 120.81 26.6508V34.7344C120.81 36.0941 120.936 36.3766 121.863 36.4541L122.865 36.5054V37.1721H116.25V36.5054L116.751 36.4541C117.678 36.3515 117.803 36.0941 117.803 34.7344V26.6508V25.4973Z" fill="white"/>
<path d="M134.926 35.9191C134.274 36.4581 132.696 37.5614 130.165 37.5614C127.208 37.5614 124.301 35.6365 124.301 31.5052C124.301 27.4252 127.183 25.1162 130.039 25.1162C134.074 25.1162 134.725 27.8104 135.001 29.2988C132.846 30.3246 130.065 31.1462 127.459 31.7617C127.734 33.3014 128.486 36.073 131.919 36.073C133.272 36.073 134.325 35.5088 134.676 35.3288L134.926 35.9191ZM131.994 29.4527C131.818 27.6052 131.067 26.0907 129.488 26.0907C127.308 26.0907 127.308 30.0943 127.308 30.5559C128.886 30.2994 130.465 29.9656 131.994 29.4527Z" fill="white"/>
<path d="M31.1603 13.9881C31.1131 13.5478 31.0932 13.0988 31.1348 12.6507C31.1547 12.4378 31.1877 12.2259 31.2397 12.0188C31.251 11.9713 31.269 11.8784 31.2926 11.7826C31.3143 11.6955 31.2255 11.6317 31.1603 11.6868C30.5726 12.1823 30.0444 12.8452 29.6542 13.5226C29.3329 14.081 29.1005 14.7159 29.0391 15.3652C29.8328 15.463 30.6132 15.6381 31.371 15.8849C31.406 15.2413 31.2274 14.6162 31.1603 13.9881Z" fill="white"/>
<path d="M25.5557 15.4271C26.2681 15.311 26.9815 15.2617 27.6902 15.2713C27.6741 15.1726 27.6552 15.0749 27.6307 14.9781C27.5503 14.6684 27.3651 14.3868 27.2385 14.0965C27.0977 13.7742 26.9702 13.4442 26.871 13.1036C26.7973 12.85 26.7349 12.5878 26.7056 12.3226C26.6896 12.1755 26.682 12.0275 26.6858 11.8794C26.6867 11.8513 26.6848 11.7981 26.6839 11.7381C26.6829 11.6578 26.5941 11.62 26.5488 11.682C26.1803 12.1746 25.927 12.7717 25.7371 13.3813C25.6077 13.7965 25.5028 14.2397 25.4867 14.6829C25.4792 14.8794 25.4896 15.0749 25.5226 15.2694C25.5302 15.3226 25.5434 15.3749 25.5557 15.4271Z" fill="white"/>
<path d="M22.1623 16.3464C22.1822 16.389 22.2048 16.4296 22.2266 16.4703C22.2965 16.4374 22.3645 16.4025 22.4344 16.3706C22.9522 16.1374 23.4776 15.9458 24.0058 15.788C23.9737 15.7193 23.9387 15.6506 23.9009 15.5848C23.7611 15.339 23.5362 15.1425 23.3604 14.9248C23.1648 14.6829 22.9787 14.4322 22.8143 14.1632C22.6924 13.9648 22.5781 13.7548 22.4911 13.5351C22.4429 13.4132 22.4023 13.2883 22.3711 13.1606C22.3645 13.1354 22.3503 13.0909 22.3362 13.0396C22.3173 12.9709 22.2322 12.9603 22.2077 13.0241C22.0064 13.5361 21.928 14.109 21.9072 14.678C21.893 15.0651 21.9063 15.4696 21.996 15.8529C22.0348 16.0232 22.0896 16.1887 22.1623 16.3464Z" fill="white"/>
<path d="M35.4258 18.0923C36.1656 18.6943 36.845 19.3833 37.445 20.1565C37.8957 19.5478 38.131 18.8123 38.4759 18.1514C38.7206 17.682 38.9965 17.2233 39.3338 16.8081C39.4935 16.6117 39.6674 16.4249 39.8554 16.2546C39.8989 16.2159 39.9773 16.1356 40.0642 16.0572C40.1426 15.9856 40.0973 15.8607 39.9962 15.8704C39.0872 15.9536 38.1253 16.244 37.291 16.6456C36.5861 16.9843 35.92 17.4681 35.4258 18.0923Z" fill="white"/>
<path d="M39.1273 23.01C39.1935 23.1629 39.2521 23.3167 39.3116 23.4706C39.9768 22.9577 40.4313 22.2319 40.9859 21.6203C41.3686 21.1974 41.7825 20.7958 42.2483 20.4571C42.4694 20.2964 42.7009 20.1503 42.9447 20.0254C43.0004 19.9974 43.1043 19.9354 43.2168 19.8783C43.3188 19.8261 43.3047 19.6819 43.196 19.6635C42.2209 19.4932 41.1343 19.5251 40.1525 19.708C39.3305 19.8619 38.5103 20.1745 37.8281 20.6777C38.3299 21.3929 38.7673 22.1719 39.1273 23.01Z" fill="white"/>
<path d="M35.1293 15.5076C35.2238 15.0295 35.3486 14.5524 35.5385 14.0976C35.6282 13.8818 35.7331 13.6708 35.855 13.4705C35.8824 13.425 35.9315 13.3331 35.9882 13.2411C36.0393 13.1569 35.9675 13.0592 35.8805 13.095C35.1029 13.4134 34.3328 13.9273 33.7035 14.5031C33.1687 14.9927 32.7076 15.5986 32.4336 16.2827C33.2386 16.6282 34.0097 17.056 34.7315 17.566C34.9772 16.904 34.9952 16.1879 35.1293 15.5076Z" fill="white"/>
<path d="M42.2878 28.2001C41.6311 27.9311 40.9064 27.7772 40.1958 27.8236C40.2242 28.7295 40.1618 29.6304 40.0078 30.5111C40.7193 30.4549 41.3703 30.1395 42.044 29.9546C42.5042 29.8288 42.9776 29.7311 43.4595 29.703C43.6881 29.6895 43.9187 29.6914 44.1483 29.7146C44.2003 29.7195 44.3023 29.7243 44.4081 29.734C44.5045 29.7436 44.5574 29.6343 44.4875 29.5704C43.8639 29.0004 43.0711 28.5214 42.2878 28.2001Z" fill="white"/>
<path d="M44.5722 24.577C43.7511 24.1686 42.7798 23.9083 41.8642 23.8115C41.0865 23.7292 40.2701 23.7931 39.5312 24.0679C39.8459 25.0134 40.0481 25.9744 40.1435 26.9354C40.8749 26.6595 41.4664 26.1283 42.1202 25.7276C42.5662 25.4547 43.0339 25.2079 43.5319 25.0308C43.7681 24.9466 44.0109 24.8779 44.2575 24.8324C44.3142 24.8218 44.422 24.7957 44.5363 24.7734C44.6393 24.7531 44.6638 24.6224 44.5722 24.577Z" fill="white"/>
<path d="M35.8775 38.0068C35.4032 38.4317 34.8939 38.8236 34.3516 39.1768C34.7087 39.5455 35.1727 39.7701 35.578 40.0652C35.8605 40.2704 36.1327 40.4968 36.3717 40.761C36.4851 40.8859 36.5909 41.0194 36.6845 41.1617C36.7062 41.1946 36.7506 41.2546 36.7941 41.3204C36.8338 41.3794 36.9179 41.3601 36.9207 41.2904C36.9443 40.6672 36.8385 39.9907 36.6505 39.3926C36.4917 38.8855 36.2366 38.3949 35.8775 38.0068Z" fill="white"/>
<path d="M38.2859 35.1038C37.9079 35.7251 37.4761 36.3144 36.9961 36.867C37.5054 37.1476 38.0846 37.2289 38.6222 37.408C38.9926 37.5318 39.3592 37.6809 39.7032 37.8821C39.8657 37.978 40.0235 38.0844 40.1709 38.2044C40.2049 38.2315 40.272 38.2809 40.341 38.337C40.4024 38.3873 40.4874 38.337 40.4666 38.2615C40.2871 37.5851 39.9526 36.8951 39.5539 36.3163C39.2203 35.8325 38.7914 35.397 38.2859 35.1038Z" fill="white"/>
<path d="M41.4914 32.4963C40.9897 32.085 40.3982 31.754 39.7679 31.603C39.561 32.3927 39.2813 33.1592 38.9336 33.8946C39.5591 34.0311 40.1997 33.9363 40.8262 33.9575C41.2589 33.9721 41.6955 34.0156 42.1226 34.1211C42.3248 34.1714 42.5251 34.2353 42.7188 34.3175C42.7632 34.3359 42.8501 34.3679 42.9399 34.4056C43.0212 34.4395 43.0958 34.3592 43.0514 34.2846C42.6564 33.6179 42.0904 32.9869 41.4914 32.4963Z" fill="white"/>
<path d="M25.0977 38.7458C23.0511 39.0032 21.1651 38.8097 19.6523 38.1807C20.3166 38.7342 21.0357 39.22 21.802 39.6274C23.6294 40.5981 25.7157 41.1245 27.9192 41.0655C28.8584 41.0403 29.7692 40.9068 30.6442 40.6832C29.1683 40.5158 27.7585 40.1026 26.4518 39.4813C25.9869 39.2607 25.5343 39.0168 25.0977 38.7458Z" fill="white"/>
<path d="M36.1231 33.4417C36.1231 33.4417 36.1865 33.3517 36.1194 33.2782C36.0608 33.2143 35.9701 33.284 35.9701 33.284C34.7465 34.512 33.263 35.6433 31.5613 36.5782C31.2372 36.7562 30.9121 36.9217 30.5861 37.0785C29.1603 37.7656 27.725 38.2533 26.3398 38.5427C26.7499 38.7817 27.1732 38.9995 27.6079 39.1969C28.8948 39.7795 30.28 40.1733 31.7313 40.3562C32.3049 40.1511 32.8595 39.9062 33.3915 39.6227C32.6148 39.0275 31.8844 38.385 31.1994 37.7066C33.3178 36.5375 35.0101 35.0308 36.1231 33.4417Z" fill="white"/>
<path d="M16.3925 31.0233C16.4889 31.0775 16.589 31.1298 16.692 31.1782C17.0719 31.3572 17.4971 31.4956 17.9601 31.5962C18.3503 31.6804 18.767 31.7375 19.2073 31.7666C19.0259 31.3301 18.8643 30.884 18.7235 30.4301C18.5062 29.7256 18.339 29.0008 18.2265 28.2614C18.1887 28.0137 18.1575 27.764 18.132 27.5124C18.1112 27.3024 18.0914 27.0914 18.0791 26.8795C18.0725 26.7682 18.0716 26.6569 18.0678 26.5456C18.0527 26.1188 18.0527 25.6949 18.0716 25.274C17.5793 25.2053 17.1494 25.0775 16.7969 24.8917C16.7516 24.8675 16.709 24.8424 16.6665 24.8162C16.4435 24.6808 16.2527 24.523 16.1062 24.3343C16.0278 24.2327 15.9607 24.1243 15.9068 24.0082C15.8568 23.9008 15.8209 23.7875 15.7944 23.6724C15.6092 24.1804 15.4524 24.702 15.3295 25.2372C15.2804 25.4501 15.2369 25.6659 15.1991 25.8827C15.1226 26.3162 15.0668 26.7566 15.0347 27.2037C15.0272 27.3101 15.0243 27.4185 15.0186 27.5259C15.0026 27.8549 14.995 28.1859 15.0035 28.5198C15.0149 28.9495 15.047 29.3724 15.098 29.7895C15.3975 30.2975 15.8369 30.7088 16.3925 31.0233Z" fill="white"/>
<path d="M20.0691 25.2736C19.7412 25.3094 19.4294 25.3269 19.1289 25.3307C19.1289 25.6298 19.1355 25.9307 19.1516 26.2327C19.1516 26.2365 19.1516 26.2404 19.1516 26.2443C19.1573 26.344 19.1676 26.4417 19.1752 26.5414C19.1875 26.7117 19.1988 26.882 19.2149 27.0494C19.2962 27.8517 19.4322 28.6278 19.6165 29.3749C19.8224 30.212 20.0899 31.0133 20.4149 31.774C22.0836 31.7004 23.9875 31.2833 25.9547 30.5198C25.1714 29.0633 24.5081 27.6001 23.9478 26.194C23.8476 25.9414 23.7503 25.6917 23.6558 25.443C24.0206 25.294 24.3862 25.1362 24.7538 24.9581C27.0546 23.8414 28.8876 22.3723 29.9346 20.9488C30.0045 20.854 30.065 20.7601 30.1273 20.6652C30.1273 20.6652 30.1953 20.5646 30.1198 20.4901C30.047 20.4185 29.9591 20.494 29.9591 20.494C29.7588 20.6943 29.549 20.8946 29.3213 21.093C28.2631 22.0143 26.9185 22.9017 25.3812 23.6469C24.6829 23.9846 23.9903 24.2672 23.311 24.5043C22.6354 24.7404 21.9749 24.9301 21.3447 25.0656C20.9043 25.1575 20.4773 25.2281 20.0691 25.2736Z" fill="white"/>
<path d="M16.7454 23.5061C16.9325 23.6842 17.1668 23.8294 17.4436 23.9426C17.5221 23.9745 17.6043 24.0035 17.6884 24.0297C17.8367 24.0771 17.9955 24.1158 18.1627 24.1468C18.1863 23.9503 18.2128 23.7548 18.244 23.5594C18.2685 23.4035 18.2921 23.2468 18.3214 23.0919C18.4178 22.5771 18.5406 22.069 18.6852 21.5697C18.9923 20.5129 19.4062 19.4938 19.9155 18.53C20.0553 18.2658 20.1989 18.0045 20.3529 17.749C20.3973 17.6764 20.4446 17.6058 20.4899 17.5332C20.1158 17.7955 19.7548 18.0771 19.4109 18.378C18.8865 18.8377 18.3999 19.34 17.9548 19.8809C17.2868 20.6938 16.7161 21.5919 16.2578 22.5558C16.2795 22.7174 16.3145 22.8742 16.3816 23.0203C16.4676 23.2052 16.5951 23.3639 16.7454 23.5061Z" fill="white"/>
<path d="M19.4267 22.1645C19.3899 22.3551 19.3587 22.5467 19.3294 22.7393C19.2519 23.2338 19.1971 23.7351 19.1641 24.2412C19.8841 24.2509 20.6995 24.1599 21.5782 23.9625C22.0346 23.8599 22.5071 23.7293 22.9889 23.5715C22.9332 23.4032 22.8784 23.2357 22.8255 23.0712C22.5959 22.357 22.3956 21.6777 22.2208 21.0428C22.1593 20.8212 22.1017 20.6064 22.0469 20.3964C21.9534 20.0403 21.8693 19.7016 21.7927 19.3822C21.6415 18.7512 21.5225 18.1967 21.4299 17.7361C21.3893 17.5328 21.3543 17.3499 21.3241 17.1854C21.3156 17.1438 21.3089 17.1041 21.3014 17.0645C21.2655 17.1293 21.2286 17.1932 21.1937 17.257C21.0519 17.5164 20.9178 17.7806 20.7893 18.0477C20.3792 18.9003 20.0371 19.7896 19.7726 20.7099C19.6365 21.187 19.5212 21.6728 19.4267 22.1645Z" fill="white"/>
<path d="M23.8752 37.8987C22.5269 36.8545 21.359 35.5656 20.4292 34.1062C20.194 33.7365 19.9729 33.3571 19.7697 32.9661C18.9174 32.9584 18.1398 32.8549 17.4614 32.6556C17.091 32.5472 16.7508 32.4107 16.4437 32.2453C16.3492 32.1949 16.2595 32.1407 16.1716 32.0846C15.8777 31.8969 15.6217 31.6781 15.4062 31.4294C15.5631 32.0487 15.7634 32.6498 16.0044 33.2294C16.0431 33.3233 16.0799 33.4182 16.1215 33.5111C16.2614 33.8265 16.4163 34.1323 16.5788 34.4333C16.7234 34.7004 16.8765 34.9627 17.039 35.2182C17.3168 35.6546 17.622 36.0717 17.948 36.4694C19.3029 37.592 21.4185 38.0748 23.8752 37.8987Z" fill="white"/>
<path d="M28.2847 30.6985C27.6894 30.9976 27.0951 31.2666 26.5055 31.5056C24.5505 32.3011 22.6494 32.7695 20.9609 32.9127C21.1603 33.2882 21.3748 33.6511 21.6025 34.0024C22.5578 35.4792 23.755 36.7401 25.1344 37.7476C26.6604 37.5095 28.2818 37.0372 29.9108 36.3221C28.8393 35.0901 27.8907 33.774 27.0554 32.425C27.387 32.2759 27.7187 32.1182 28.0485 31.9489C31.0598 30.4092 33.3776 28.3537 34.6466 26.3214C34.6466 26.3214 34.7137 26.2266 34.6381 26.1492C34.5625 26.0718 34.4765 26.1472 34.4765 26.1472C32.9515 27.8127 30.8189 29.424 28.2847 30.6985Z" fill="white"/>
</g>
</g>
<defs>
<clipPath id="clip0_4121_923">
<rect width="120" height="30" fill="white" transform="translate(15 11.5)"/>
</clipPath>
</defs>
</svg>
