<svg width="127" height="31" viewBox="0 0 127 31" fill="none" xmlns="http://www.w3.org/2000/svg">
<g clip-path="url(#clip0_3853_861)">
<path d="M47.9187 13.6718C47.5737 12.3198 47.0697 9.64081 44.1797 9.64081C42.6677 9.64081 41.5277 10.6488 41.5277 12.2928C41.5277 16.3768 50.0137 16.1118 50.0137 21.7858C50.0137 25.5508 46.6717 26.9298 43.4897 26.9298C41.1827 26.9298 39.6707 26.3198 38.8217 25.8688C38.1847 24.1988 38.0527 23.0048 38.0527 20.8838L39.2997 20.6188C39.6707 22.2098 40.5457 25.9218 43.9407 25.9218C45.6117 25.9218 46.7257 24.7548 46.7257 22.9788C46.7257 18.4978 38.5047 18.8418 38.5047 13.4058C38.5047 10.0388 40.9977 8.63281 44.4187 8.63281C46.4077 8.63281 47.6007 9.05681 48.5827 9.61381C48.7947 10.9128 48.8747 12.3188 48.8747 13.6708H47.9187V13.6718Z" fill="white"/>
<path d="M60.7166 25.5783C59.9206 26.0553 58.6746 26.9303 56.6856 26.9303C52.5746 26.9303 52.3896 24.5443 52.3896 21.6003V17.7553C52.3896 16.8273 52.3896 15.6343 51.5946 15.6343C51.1966 15.6343 50.8526 15.7663 50.7456 15.7933V15.0243C52.7346 14.3613 54.1936 14.1493 55.5726 14.0703V21.5213C55.5726 23.6163 55.9706 25.3923 58.5696 25.3923C59.5776 25.3923 60.1876 24.9153 60.5586 24.7293V17.7553C60.5586 16.8273 60.5586 15.6343 59.7636 15.6343C59.3656 15.6343 59.0216 15.7663 58.9146 15.7933V15.0243C60.9036 14.3613 62.3626 14.1493 63.7416 14.0703V21.9983C63.7416 24.1733 63.7416 25.2073 64.6436 25.2073C64.8026 25.2073 65.1206 25.2333 65.3856 25.1813L65.4386 25.8703C64.2186 26.2943 62.7596 26.6663 61.4346 26.9313L60.7166 25.5783Z" fill="white"/>
<path d="M67.9775 17.7553C67.9775 16.8273 67.9775 15.6343 67.1825 15.6343C66.7845 15.6343 66.4395 15.7663 66.3335 15.7933V15.0243C68.3225 14.3613 69.7285 14.1493 71.1075 14.0703V15.6083C71.7705 15.0253 73.0435 14.0703 75.2975 14.0703C77.6845 14.0703 79.3015 15.2103 79.3015 18.7903V24.0143C79.3015 25.4193 79.4345 25.7113 80.3885 25.7913L80.9455 25.8443V26.5333H74.4745V25.8443L75.0315 25.7913C75.9865 25.7113 76.1185 25.4193 76.1185 24.0143V20.2493C76.1185 18.1543 76.1185 15.6093 73.3605 15.6093C72.2735 15.6093 71.5835 16.1663 71.1595 16.6173V24.0153C71.1595 25.4203 71.2915 25.7123 72.2465 25.7923L72.8035 25.8453V26.5343H66.3855V25.8453L66.9425 25.7923C67.8445 25.7123 67.9765 25.4203 67.9765 24.0153L67.9775 17.7553Z" fill="white"/>
<path d="M85.7705 25.8433L86.4065 25.7633C87.6535 25.5243 87.6535 25.6312 87.6535 22.6082V12.8762C87.6535 10.3042 87.6535 9.98525 86.4065 9.80025L85.7705 9.72025V9.03125H92.9835V9.72025L92.3465 9.80025C91.1005 9.98625 91.1005 10.3042 91.1005 12.8762V25.1532C91.8955 25.3392 92.7185 25.5243 93.5405 25.5243C97.2795 25.5243 97.3065 23.7213 98.0755 21.5203L99.0305 21.7062C98.8715 23.4302 98.6855 24.8352 98.1025 26.5322H85.7705V25.8433Z" fill="white"/>
<path d="M99.6445 25.8433L100.202 25.7902C101.157 25.6842 101.289 25.4183 101.289 24.0133V17.7552C101.289 16.8272 101.289 15.6342 100.493 15.6342C100.095 15.6342 99.7505 15.7662 99.6445 15.7932V15.0243C101.634 14.3613 103.093 14.1492 104.472 14.0702V24.0133C104.472 25.4183 104.604 25.6832 105.559 25.7902L106.116 25.8433V26.5322H99.6445V25.8433ZM100.838 9.98625C100.838 8.97825 101.634 8.15625 102.694 8.15625C103.702 8.15625 104.551 8.97825 104.551 9.98625C104.551 11.1002 103.702 11.8692 102.694 11.8692C101.634 11.8692 100.838 11.0732 100.838 9.98625Z" fill="white"/>
<path d="M108.801 14.4641C108.801 10.7781 110.631 7.03906 114.795 7.03906C116.2 7.03906 117.102 7.46306 117.685 7.91406C117.499 8.73606 117.287 9.24006 116.624 9.90306H116.438C115.934 9.42606 114.714 8.36506 113.68 8.36506C112.089 8.36506 111.983 10.5131 111.983 12.9521V14.4631C112.779 14.4891 114.396 14.5961 115.272 14.7021V15.3911C114.132 15.5241 113.097 15.6031 111.983 15.6561V24.0091C111.983 25.4141 112.116 25.7061 113.097 25.7861L114.158 25.8391V26.5281H107.157V25.8391L107.687 25.7861C108.668 25.6801 108.801 25.4141 108.801 24.0091V15.6561V14.4641Z" fill="white"/>
<path d="M126.922 25.2333C126.232 25.7903 124.562 26.9303 121.883 26.9303C118.754 26.9303 115.677 24.9413 115.677 20.6723C115.677 16.4563 118.727 14.0703 121.75 14.0703C126.02 14.0703 126.709 16.8543 127.001 18.3923C124.721 19.4523 121.777 20.3013 119.019 20.9373C119.311 22.5283 120.106 25.3923 123.74 25.3923C125.172 25.3923 126.286 24.8093 126.657 24.6233L126.922 25.2333ZM123.819 18.5513C123.633 16.6423 122.838 15.0773 121.167 15.0773C118.86 15.0773 118.86 19.2143 118.86 19.6913C120.53 19.4263 122.201 19.0813 123.819 18.5513Z" fill="white"/>
<path d="M17.1039 2.57113C17.0539 2.11613 17.0329 1.65213 17.0769 1.18913C17.0979 0.969131 17.1329 0.750131 17.1879 0.536131C17.1999 0.487131 17.2189 0.391131 17.2439 0.292131C17.2669 0.202131 17.1729 0.136131 17.1039 0.193131C16.4819 0.705131 15.9229 1.39013 15.5099 2.09013C15.1699 2.66713 14.9239 3.32313 14.8589 3.99413C15.6989 4.09513 16.5249 4.27613 17.3269 4.53113C17.3639 3.86613 17.1749 3.22013 17.1039 2.57113Z" fill="white"/>
<path d="M11.1736 4.05813C11.9276 3.93813 12.6826 3.88713 13.4326 3.89713C13.4156 3.79513 13.3956 3.69413 13.3696 3.59413C13.2846 3.27413 13.0886 2.98313 12.9546 2.68313C12.8056 2.35013 12.6706 2.00913 12.5656 1.65713C12.4876 1.39513 12.4216 1.12413 12.3906 0.850134C12.3736 0.698134 12.3656 0.545134 12.3696 0.392134C12.3706 0.363134 12.3686 0.308134 12.3676 0.246134C12.3666 0.163134 12.2726 0.124134 12.2246 0.188134C11.8346 0.697134 11.5666 1.31413 11.3656 1.94413C11.2286 2.37313 11.1176 2.83113 11.1006 3.28913C11.0926 3.49213 11.1036 3.69413 11.1386 3.89513C11.1466 3.95013 11.1606 4.00413 11.1736 4.05813Z" fill="white"/>
<path d="M7.57592 5.00812C7.59692 5.05212 7.62092 5.09412 7.64392 5.13612C7.71792 5.10212 7.78992 5.06612 7.86392 5.03312C8.41192 4.79212 8.96792 4.59412 9.52692 4.43112C9.49292 4.36012 9.45592 4.28912 9.41592 4.22112C9.26792 3.96712 9.02992 3.76412 8.84392 3.53912C8.63692 3.28912 8.43992 3.03012 8.26592 2.75212C8.13692 2.54712 8.01592 2.33012 7.92392 2.10312C7.87292 1.97712 7.82992 1.84812 7.79692 1.71612C7.78992 1.69012 7.77492 1.64412 7.75992 1.59112C7.73992 1.52012 7.64992 1.50912 7.62392 1.57512C7.41092 2.10412 7.32792 2.69612 7.30592 3.28412C7.29092 3.68412 7.30492 4.10212 7.39992 4.49812C7.44092 4.67412 7.49892 4.84512 7.57592 5.00812Z" fill="white"/>
<path d="M21.6167 6.81217C22.3997 7.43417 23.1187 8.14617 23.7537 8.94517C24.2307 8.31617 24.4797 7.55617 24.8447 6.87317C25.1037 6.38817 25.3957 5.91417 25.7527 5.48517C25.9217 5.28217 26.1057 5.08917 26.3047 4.91317C26.3507 4.87317 26.4337 4.79017 26.5257 4.70917C26.6087 4.63517 26.5607 4.50617 26.4537 4.51617C25.4917 4.60217 24.4737 4.90217 23.5907 5.31717C22.8447 5.66717 22.1397 6.16717 21.6167 6.81217Z" fill="white"/>
<path d="M25.5356 11.8938C25.6056 12.0518 25.6676 12.2108 25.7306 12.3698C26.4346 11.8398 26.9156 11.0898 27.5026 10.4578C27.9076 10.0208 28.3456 9.60578 28.8386 9.25578C29.0726 9.08978 29.3176 8.93878 29.5756 8.80978C29.6346 8.78078 29.7446 8.71678 29.8636 8.65778C29.9716 8.60378 29.9566 8.45478 29.8416 8.43578C28.8096 8.25978 27.6596 8.29278 26.6206 8.48178C25.7506 8.64078 24.8826 8.96378 24.1606 9.48378C24.6916 10.2228 25.1546 11.0278 25.5356 11.8938Z" fill="white"/>
<path d="M21.3027 4.14148C21.4027 3.64748 21.5347 3.15448 21.7357 2.68448C21.8307 2.46148 21.9417 2.24348 22.0707 2.03648C22.0997 1.98948 22.1517 1.89448 22.2117 1.79948C22.2657 1.71248 22.1897 1.61148 22.0977 1.64848C21.2747 1.97748 20.4597 2.50848 19.7937 3.10348C19.2277 3.60948 18.7397 4.23548 18.4497 4.94248C19.3017 5.29948 20.1177 5.74148 20.8817 6.26848C21.1417 5.58448 21.1607 4.84448 21.3027 4.14148Z" fill="white"/>
<path d="M28.8808 17.2569C28.1858 16.9789 27.4188 16.8199 26.6668 16.8679C26.6968 17.8039 26.6308 18.7349 26.4678 19.6449C27.2208 19.5869 27.9098 19.2609 28.6228 19.0699C29.1098 18.9399 29.6108 18.8389 30.1208 18.8099C30.3628 18.7959 30.6068 18.7979 30.8498 18.8219C30.9048 18.8269 31.0128 18.8319 31.1248 18.8419C31.2268 18.8519 31.2828 18.7389 31.2088 18.6729C30.5488 18.0839 29.7098 17.5889 28.8808 17.2569Z" fill="white"/>
<path d="M31.294 13.513C30.425 13.091 29.397 12.822 28.428 12.722C27.605 12.637 26.741 12.703 25.959 12.987C26.292 13.964 26.506 14.957 26.607 15.95C27.381 15.665 28.007 15.116 28.699 14.702C29.171 14.42 29.666 14.165 30.193 13.982C30.443 13.895 30.7 13.824 30.961 13.777C31.021 13.766 31.135 13.739 31.256 13.716C31.365 13.695 31.391 13.56 31.294 13.513Z" fill="white"/>
<path d="M22.096 27.3906C21.594 27.8296 21.055 28.2346 20.481 28.5996C20.859 28.9806 21.35 29.2126 21.779 29.5176C22.078 29.7296 22.366 29.9636 22.619 30.2366C22.739 30.3656 22.851 30.5036 22.95 30.6506C22.973 30.6846 23.02 30.7466 23.066 30.8146C23.108 30.8756 23.197 30.8556 23.2 30.7836C23.225 30.1396 23.113 29.4406 22.914 28.8226C22.746 28.2986 22.476 27.7916 22.096 27.3906Z" fill="white"/>
<path d="M24.6419 24.3906C24.2419 25.0326 23.7849 25.6416 23.2769 26.2126C23.8159 26.5026 24.4289 26.5866 24.9979 26.7716C25.3899 26.8996 25.7779 27.0536 26.1419 27.2616C26.3139 27.3606 26.4809 27.4706 26.6369 27.5946C26.6729 27.6226 26.7439 27.6736 26.8169 27.7316C26.8819 27.7836 26.9719 27.7316 26.9499 27.6536C26.7599 26.9546 26.4059 26.2416 25.9839 25.6436C25.6309 25.1436 25.1769 24.6936 24.6419 24.3906Z" fill="white"/>
<path d="M28.0366 21.6964C27.5056 21.2714 26.8796 20.9294 26.2126 20.7734C25.9936 21.5894 25.6976 22.3814 25.3296 23.1414C25.9916 23.2824 26.6696 23.1844 27.3326 23.2064C27.7906 23.2214 28.2526 23.2664 28.7046 23.3754C28.9186 23.4274 29.1306 23.4934 29.3356 23.5784C29.3826 23.5974 29.4746 23.6304 29.5696 23.6694C29.6556 23.7044 29.7346 23.6214 29.6876 23.5444C29.2696 22.8554 28.6706 22.2034 28.0366 21.6964Z" fill="white"/>
<path d="M10.6859 28.1543C8.51985 28.4203 6.52385 28.2203 4.92285 27.5703C5.62585 28.1423 6.38685 28.6443 7.19785 29.0653C9.13185 30.0683 11.3399 30.6123 13.6719 30.5513C14.6659 30.5253 15.6299 30.3873 16.5559 30.1563C14.9939 29.9833 13.5019 29.5563 12.1189 28.9143C11.6269 28.6863 11.1479 28.4343 10.6859 28.1543Z" fill="white"/>
<path d="M22.3569 22.6734C22.3569 22.6734 22.4239 22.5804 22.3529 22.5044C22.2909 22.4384 22.1949 22.5104 22.1949 22.5104C20.8999 23.7794 19.3299 24.9484 17.5289 25.9144C17.1859 26.0984 16.8419 26.2694 16.4969 26.4314C14.9879 27.1414 13.4689 27.6454 12.0029 27.9444C12.4369 28.1914 12.8849 28.4164 13.3449 28.6204C14.7069 29.2224 16.1729 29.6294 17.7089 29.8184C18.3159 29.6064 18.9029 29.3534 19.4659 29.0604C18.6439 28.4454 17.8709 27.7814 17.1459 27.0804C19.3879 25.8724 21.1789 24.3154 22.3569 22.6734Z" fill="white"/>
<path d="M1.47276 20.1741C1.57476 20.2301 1.68076 20.2841 1.78976 20.3341C2.19176 20.5191 2.64176 20.6621 3.13176 20.7661C3.54476 20.8531 3.98576 20.9121 4.45176 20.9421C4.25976 20.4911 4.08876 20.0301 3.93976 19.5611C3.70976 18.8331 3.53276 18.0841 3.41376 17.3201C3.37376 17.0641 3.34076 16.8061 3.31376 16.5461C3.29176 16.3291 3.27076 16.1111 3.25776 15.8921C3.25076 15.7771 3.24976 15.6621 3.24576 15.5471C3.22976 15.1061 3.22976 14.6681 3.24976 14.2331C2.72876 14.1621 2.27376 14.0301 1.90076 13.8381C1.85276 13.8131 1.80776 13.7871 1.76276 13.7601C1.52676 13.6201 1.32476 13.4571 1.16976 13.2621C1.08676 13.1571 1.01576 13.0451 0.958761 12.9251C0.905761 12.8141 0.867761 12.6971 0.839761 12.5781C0.643761 13.1031 0.477761 13.6421 0.347761 14.1951C0.295761 14.4151 0.249761 14.6381 0.209761 14.8621C0.128761 15.3101 0.0697612 15.7651 0.0357612 16.2271C0.0277612 16.3371 0.0247612 16.4491 0.0187612 16.5601C0.00176124 16.9001 -0.00623876 17.2421 0.00276124 17.5871C0.0147612 18.0311 0.0487612 18.4681 0.102761 18.8991C0.419761 19.4241 0.884761 19.8491 1.47276 20.1741Z" fill="white"/>
<path d="M5.36072 14.2327C5.01372 14.2697 4.68372 14.2877 4.36572 14.2917C4.36572 14.6007 4.37272 14.9117 4.38972 15.2237C4.38972 15.2277 4.38972 15.2317 4.38972 15.2357C4.39572 15.3387 4.40672 15.4397 4.41472 15.5427C4.42772 15.7187 4.43972 15.8947 4.45672 16.0677C4.54272 16.8967 4.68672 17.6987 4.88172 18.4707C5.09972 19.3357 5.38272 20.1637 5.72672 20.9497C7.49272 20.8737 9.50772 20.4427 11.5897 19.6537C10.7607 18.1487 10.0587 16.6367 9.46572 15.1837C9.35972 14.9227 9.25672 14.6647 9.15672 14.4077C9.54272 14.2537 9.92972 14.0907 10.3187 13.9067C12.7537 12.7527 14.6937 11.2347 15.8017 9.7637C15.8757 9.6657 15.9397 9.5687 16.0057 9.4707C16.0057 9.4707 16.0777 9.3667 15.9977 9.2897C15.9207 9.2157 15.8277 9.2937 15.8277 9.2937C15.6157 9.5007 15.3937 9.7077 15.1527 9.9127C14.0327 10.8647 12.6097 11.7817 10.9827 12.5517C10.2437 12.9007 9.51072 13.1927 8.79172 13.4377C8.07672 13.6817 7.37772 13.8777 6.71072 14.0177C6.24472 14.1127 5.79272 14.1857 5.36072 14.2327Z" fill="white"/>
<path d="M1.84852 12.4064C2.04652 12.5904 2.29452 12.7404 2.58752 12.8574C2.67052 12.8904 2.75752 12.9204 2.84652 12.9474C3.00352 12.9964 3.17152 13.0364 3.34852 13.0684C3.37352 12.8654 3.40152 12.6634 3.43452 12.4614C3.46052 12.3004 3.48552 12.1384 3.51652 11.9784C3.61852 11.4464 3.74852 10.9214 3.90152 10.4054C4.22652 9.31337 4.66452 8.26038 5.20352 7.26438C5.35152 6.99138 5.50352 6.72138 5.66652 6.45738C5.71352 6.38238 5.76352 6.30938 5.81152 6.23438C5.41552 6.50537 5.03352 6.79638 4.66952 7.10738C4.11452 7.58238 3.59952 8.10138 3.12852 8.66038C2.42152 9.50038 1.81752 10.4284 1.33252 11.4244C1.35552 11.5914 1.39252 11.7534 1.46352 11.9044C1.55452 12.0954 1.68952 12.2594 1.84852 12.4064Z" fill="white"/>
<path d="M4.68376 11.02C4.64476 11.217 4.61176 11.415 4.58076 11.614C4.49876 12.125 4.44076 12.643 4.40576 13.166C5.16776 13.176 6.03076 13.082 6.96076 12.878C7.44376 12.772 7.94376 12.637 8.45376 12.474C8.39476 12.3 8.33676 12.127 8.28076 11.957C8.03776 11.219 7.82576 10.517 7.64076 9.861C7.57576 9.632 7.51476 9.41 7.45676 9.193C7.35776 8.825 7.26876 8.475 7.18776 8.145C7.02776 7.493 6.90176 6.92 6.80376 6.444C6.76076 6.234 6.72376 6.045 6.69176 5.875C6.68276 5.832 6.67576 5.791 6.66776 5.75C6.62976 5.817 6.59076 5.883 6.55376 5.949C6.40376 6.217 6.26176 6.49 6.12576 6.766C5.69176 7.647 5.32976 8.566 5.04976 9.517C4.90576 10.01 4.78376 10.512 4.68376 11.02Z" fill="white"/>
<path d="M9.39171 27.2787C7.96471 26.1997 6.72871 24.8678 5.74471 23.3598C5.49571 22.9778 5.26171 22.5857 5.04671 22.1817C4.14471 22.1737 3.32171 22.0668 2.60371 21.8608C2.21171 21.7488 1.85171 21.6078 1.52671 21.4368C1.42671 21.3848 1.33171 21.3288 1.23871 21.2708C0.927711 21.0768 0.656711 20.8507 0.428711 20.5938C0.594711 21.2337 0.806711 21.8548 1.06171 22.4538C1.10271 22.5508 1.14171 22.6488 1.18571 22.7448C1.33371 23.0708 1.49771 23.3868 1.66971 23.6978C1.82271 23.9738 1.98471 24.2448 2.15671 24.5088C2.45071 24.9598 2.77371 25.3908 3.11871 25.8018C4.55271 26.9618 6.79171 27.4607 9.39171 27.2787Z" fill="white"/>
<path d="M14.0576 19.8386C13.4276 20.1476 12.7986 20.4256 12.1746 20.6726C10.1056 21.4946 8.09364 21.9786 6.30664 22.1266C6.51764 22.5146 6.74464 22.8896 6.98564 23.2526C7.99664 24.7786 9.26364 26.0816 10.7236 27.1226C12.3386 26.8766 14.0546 26.3886 15.7786 25.6496C14.6446 24.3766 13.6406 23.0166 12.7566 21.6226C13.1076 21.4686 13.4586 21.3056 13.8076 21.1306C16.9946 19.5396 19.4476 17.4156 20.7906 15.3156C20.7906 15.3156 20.8616 15.2176 20.7816 15.1376C20.7016 15.0576 20.6106 15.1356 20.6106 15.1356C18.9966 16.8566 16.7396 18.5216 14.0576 19.8386Z" fill="white"/>
</g>
<defs>
<clipPath id="clip0_3853_861">
<rect width="127" height="31" fill="white"/>
</clipPath>
</defs>
</svg>
