<svg width="186" height="53" viewBox="0 0 186 53" fill="none" xmlns="http://www.w3.org/2000/svg">
<g clip-path="url(#clip0_949_556)">
<mask id="mask0_949_556" style="mask-type:luminance" maskUnits="userSpaceOnUse" x="10" y="10" width="166" height="33">
<path d="M175.863 10.5H10.1484V42.5H175.863V10.5Z" fill="white"/>
</mask>
<g mask="url(#mask0_949_556)">
<path fill-rule="evenodd" clip-rule="evenodd" d="M169.4 22.7935C166.059 22.0396 164.891 21.9556 164.891 20.6262C164.891 19.3922 166.544 19.0076 167.497 19.0076C169.041 19.0076 170.856 19.3662 172.707 20.3182L174.053 17.1129C172.16 16.0762 169.722 15.6462 167.376 15.6462C162.768 15.6462 159.677 17.5142 159.551 21.1576C159.416 24.4782 162.12 25.7236 164.603 26.2369C166.996 26.7302 169.425 27.1535 169.473 28.5763C169.519 29.8883 168.34 30.4495 166.114 30.4495C164.051 30.4495 162.137 29.7869 160.177 28.9676L159.035 32.4495C161.283 33.4089 163.569 33.9356 165.927 33.9356C169.2 33.9356 171.585 33.4262 173.345 31.7756C174.564 30.6409 174.963 29.2723 174.963 27.9695C174.963 25.2149 173.248 23.6629 169.4 22.7935Z" fill="white"/>
<path fill-rule="evenodd" clip-rule="evenodd" d="M146.422 16.1548V27.2221C146.422 28.0894 146.422 28.3294 146.368 28.6661C146.213 29.7208 145.186 30.3328 143.556 30.3534C142.349 30.3348 141.466 29.9781 141.053 29.3468C140.845 29.0208 140.746 28.4388 140.746 27.5094V16.1548H135.613V28.1601C135.613 29.8235 135.835 30.5728 136.584 31.5214C137.825 33.0755 140.241 33.8894 143.568 33.8894C143.602 33.8894 143.637 33.8894 143.674 33.8894C143.693 33.8894 143.723 33.8894 143.746 33.8894C148.203 33.8894 150.499 32.1494 151.166 30.5254C151.499 29.7381 151.525 29.3641 151.525 27.7734V16.1548H146.422Z" fill="white"/>
<path fill-rule="evenodd" clip-rule="evenodd" d="M129.532 30.1368H121.986V16.1548H117.035V33.5741H129.532V30.1368Z" fill="white"/>
<path fill-rule="evenodd" clip-rule="evenodd" d="M108.231 19.5421V16.1548H96.1562V33.5741H108.231V30.0408H101.048V26.1801H107.023V22.7981H101.048V19.5421H108.231Z" fill="white"/>
<path fill-rule="evenodd" clip-rule="evenodd" d="M89.1341 19.5928V16.1548H73.9414V19.5928H79.0747V33.5741H83.996V19.5928H89.1341Z" fill="white"/>
<path fill-rule="evenodd" clip-rule="evenodd" d="M76.2698 11.385L47.4805 17.117V19.123L47.5738 19.099C66.5912 14.4776 76.2698 11.6996 76.3485 11.6776C76.4565 11.6503 76.4932 11.5663 76.4785 11.4956C76.4639 11.421 76.3858 11.3603 76.2698 11.385Z" fill="white"/>
<path fill-rule="evenodd" clip-rule="evenodd" d="M52.8531 10.8354C51.4531 10.916 48.8625 12.988 47.4411 14.2207C41.7758 19.12 37.5651 23.6253 34.5024 28.3434C28.1184 31.7607 19.9804 35.2767 11.8978 38.0227L11.7038 38.0887L10.1484 42.2773L11.0364 41.9333C16.1771 39.9754 24.7571 36.296 32.5358 32.206C32.0971 33.374 31.8764 34.4467 31.8764 35.4267C31.8764 36.1587 31.9984 36.8333 32.2438 37.456C32.7338 38.684 33.6958 39.618 35.0331 40.15C37.0231 40.944 39.7398 40.9594 42.8385 40.0213C50.7551 37.6194 60.1444 30.2554 62.1891 28.7907L62.2651 28.7347C62.3458 28.678 62.3518 28.59 62.3164 28.5314C62.2724 28.464 62.1791 28.448 62.1011 28.4927L62.0011 28.5554C59.8064 29.8667 49.1464 36.1973 42.2164 38.0573C38.6884 39.0047 35.9985 38.4853 34.9831 37.0667C34.6311 36.5827 34.4618 35.968 34.4618 35.2514C34.4618 33.8573 35.1178 32.0773 36.3851 30.1027C37.5511 29.4367 38.6378 28.7887 39.6184 28.176C46.3798 24.3754 54.1684 16.9874 54.4991 12.4794C54.5011 12.4487 54.5011 12.4134 54.5011 12.3787C54.5011 11.992 54.3331 11.5887 54.0385 11.2927C53.7218 10.97 53.3031 10.8087 52.8531 10.8354ZM52.0998 12.986C52.5444 12.7 52.6724 12.878 52.5424 13.202C52.3291 13.7187 51.3558 16.8354 44.1071 22.7847C42.2164 24.334 40.8705 25.206 38.1491 26.816C42.6071 20.566 49.1178 14.924 52.0998 12.986Z" fill="white"/>
<path fill-rule="evenodd" clip-rule="evenodd" d="M47.378 17.1363L17.0886 23.6469L15.918 26.7949L47.4713 19.1236L47.5206 19.1116V17.1069L47.378 17.1363Z" fill="white"/>
</g>
</g>
<defs>
<clipPath id="clip0_949_556">
<rect width="165.714" height="32" fill="white" transform="translate(10.1445 10.5)"/>
</clipPath>
</defs>
</svg>
