<svg width="150" height="53" viewBox="0 0 150 53" fill="none" xmlns="http://www.w3.org/2000/svg">
<path d="M87.3166 20.9949V18.3345H77.832V32.0139H87.3166V29.2392H81.6769V26.2077H86.367V23.5523H81.6769V20.9949H87.3166Z" fill="white"/>
<path d="M104.049 29.314H98.1216V18.3345H94.2344V32.0139H104.049V29.314Z" fill="white"/>
<path d="M135.356 23.5477C132.731 22.9551 131.814 22.8895 131.814 21.8453C131.814 20.8746 133.109 20.5748 133.861 20.5748C135.074 20.5748 136.497 20.8548 137.952 21.6048L139.011 19.0869C137.523 18.272 135.609 17.9348 133.766 17.9348C130.145 17.9348 127.72 19.4015 127.619 22.263C127.515 24.8698 129.635 25.8476 131.586 26.2518C133.467 26.6391 135.372 26.9721 135.413 28.0889C135.449 29.1196 134.519 29.5592 132.774 29.5592C131.154 29.5592 129.649 29.0399 128.112 28.3972L127.215 31.1324C128.981 31.8823 130.778 32.2972 132.627 32.2972C135.198 32.2972 137.072 31.8978 138.453 30.6019C139.411 29.7108 139.725 28.6357 139.725 27.6127C139.725 25.449 138.38 24.2292 135.356 23.5477Z" fill="white"/>
<path d="M72.3194 21.0351V18.3345H60.3867V21.0351H64.4186V32.0139H68.2833V21.0351H72.3194Z" fill="white"/>
<path d="M117.306 18.3345V27.0254C117.306 27.7076 117.306 27.8953 117.262 28.1577C117.14 28.9866 116.336 29.4664 115.054 29.4847C114.105 29.4685 113.412 29.1898 113.088 28.6946C112.927 28.4392 112.847 27.9813 112.847 27.2511V18.3345H108.816V27.764C108.816 29.0685 108.991 29.659 109.578 30.4026C110.553 31.6224 112.448 32.2601 115.062 32.2601C115.087 32.2601 115.116 32.2601 115.143 32.2601C115.159 32.2601 115.183 32.2601 115.202 32.2601C118.701 32.2601 120.505 30.8943 121.028 29.6216C121.29 29.0015 121.309 28.708 121.309 27.4614V18.3352L117.306 18.3345Z" fill="white"/>
<path d="M62.215 14.5873L39.6055 19.089V20.6637L39.6788 20.6482C54.6133 17.0177 62.2136 14.8335 62.2749 14.8173C62.3589 14.7954 62.3892 14.7298 62.3779 14.6741C62.3674 14.6162 62.306 14.5711 62.215 14.5873Z" fill="white"/>
<path d="M43.2372 15.8467C43.5864 15.6223 43.6866 15.7599 43.5843 16.0153C43.4178 16.4209 42.6523 18.8669 36.9597 23.54C35.4754 24.7598 34.4179 25.4413 32.2802 26.707C35.783 21.7968 40.895 17.3677 43.2372 15.8467ZM43.8291 14.1577C42.7292 14.2191 40.696 15.8467 39.5792 16.8146C35.1297 20.6644 31.8231 24.2011 29.4181 27.9056C24.4049 30.5914 18.0138 33.3498 11.6666 35.5072L11.5135 35.5594L10.293 38.8449L10.9907 38.5775C15.0275 37.0388 21.7649 34.152 27.8737 30.9385C27.5295 31.8563 27.3559 32.698 27.3559 33.4698C27.3559 34.0426 27.4526 34.5732 27.6445 35.0614C28.0297 36.0243 28.7852 36.7573 29.835 37.1778C31.3977 37.8008 33.5311 37.8128 35.9643 37.0755C42.1818 35.189 49.5555 29.4062 51.1605 28.2562L51.2212 28.2125C51.2833 28.168 51.2896 28.0968 51.2621 28.0509C51.2275 27.9973 51.1549 27.9839 51.0928 28.0192L51.0138 28.0678C49.291 29.0979 40.9189 34.0701 35.4782 35.5298C32.7063 36.2734 30.5955 35.867 29.7969 34.7509C29.5197 34.3728 29.3877 33.8881 29.3877 33.3251C29.3877 32.2267 29.9027 30.8341 30.8982 29.2813C31.8139 28.7606 32.6675 28.2499 33.4379 27.7673C38.7453 24.7859 44.8619 18.9896 45.1215 15.4467C45.1229 15.4234 45.1229 15.3959 45.1229 15.3676C45.1229 15.0615 44.9903 14.7475 44.7596 14.514C44.5113 14.2628 44.1839 14.1344 43.8291 14.1577Z" fill="white"/>
<path d="M39.5304 19.1062L15.7442 24.2182L14.8242 26.6923L39.6038 20.6653L39.6433 20.6568V19.0801L39.5304 19.1062Z" fill="white"/>
</svg>
