<svg width="150" height="53" viewBox="0 0 150 53" fill="none" xmlns="http://www.w3.org/2000/svg">
<path d="M129.647 17.3787C129.505 17.3795 129.365 17.4082 129.234 17.4632C129.103 17.5183 128.985 17.5985 128.885 17.6993C128.786 17.8002 128.707 17.9197 128.653 18.051C128.6 18.1823 128.573 18.3229 128.573 18.4647V23.3737C127.488 22.416 126.108 21.8593 124.662 21.7963C123.216 21.7332 121.792 22.1678 120.628 23.0274C119.464 23.887 118.629 25.1197 118.264 26.52C117.898 27.9204 118.024 29.4037 118.62 30.7226C119.215 32.0416 120.245 33.1165 121.537 33.7681C122.83 34.4197 124.306 34.6086 125.721 34.3034C127.136 33.9982 128.403 33.2173 129.311 32.0908C130.22 30.9644 130.715 29.5605 130.714 28.1132V18.4647C130.716 18.3232 130.689 18.1828 130.637 18.0515C130.584 17.9202 130.506 17.8006 130.406 17.6997C130.307 17.5988 130.189 17.5185 130.059 17.4634C129.928 17.4083 129.788 17.3795 129.647 17.3787ZM128.573 28.1132C128.573 28.9429 128.327 29.7539 127.866 30.4436C127.405 31.1333 126.75 31.6708 125.983 31.988C125.217 32.3052 124.373 32.3879 123.56 32.2256C122.746 32.0633 121.999 31.6632 121.413 31.0762C120.826 30.4891 120.428 29.7413 120.266 28.9275C120.105 28.1136 120.189 27.2703 120.508 26.5041C120.826 25.738 121.364 25.0835 122.055 24.6235C122.745 24.1635 123.557 23.9186 124.386 23.9198C125.497 23.9215 126.562 24.364 127.347 25.1503C128.133 25.9365 128.573 27.0022 128.573 28.1132Z" fill="white"/>
<path d="M108.431 28.1135C108.434 26.6612 107.939 25.2519 107.029 24.1206C106.118 22.9893 104.847 22.2045 103.427 21.8973C102.008 21.5901 100.526 21.7789 99.2293 22.4324C97.9323 23.0858 96.8987 24.1643 96.3009 25.4879C95.7031 26.8114 95.5773 28.2999 95.9445 29.705C96.3118 31.1101 97.1498 32.3468 98.3187 33.2086C99.4876 34.0704 100.917 34.5052 102.368 34.4405C103.818 34.3758 105.203 33.8155 106.291 32.8531V33.3741C106.279 33.5215 106.299 33.6697 106.347 33.8094C106.396 33.949 106.473 34.0771 106.574 34.1856C106.674 34.2941 106.796 34.3806 106.931 34.4398C107.067 34.499 107.213 34.5296 107.361 34.5296C107.509 34.5296 107.655 34.499 107.791 34.4398C107.926 34.3806 108.048 34.2941 108.149 34.1856C108.249 34.0771 108.326 33.949 108.375 33.8094C108.423 33.6697 108.443 33.5215 108.431 33.3741V28.1198V28.1135ZM102.097 32.3069C101.268 32.3069 100.457 32.061 99.7677 31.6002C99.0781 31.1394 98.5406 30.4845 98.2232 29.7183C97.9058 28.952 97.8228 28.1089 97.9846 27.2954C98.1464 26.482 98.5458 25.7348 99.1322 25.1484C99.7187 24.5619 100.466 24.1625 101.279 24.0007C102.093 23.8389 102.936 23.922 103.702 24.2393C104.468 24.5567 105.123 25.0942 105.584 25.7838C106.045 26.4734 106.291 27.2841 106.291 28.1135C106.289 29.2252 105.847 30.2908 105.061 31.0769C104.275 31.8629 103.209 32.3052 102.097 32.3069Z" fill="white"/>
<path d="M92.4969 21.773C92.2139 21.773 91.9424 21.8854 91.7423 22.0855C91.5422 22.2857 91.4297 22.5571 91.4297 22.8401V28.1133C91.4297 29.2254 90.9879 30.292 90.2015 31.0784C89.4151 31.8648 88.3485 32.3066 87.2364 32.3066C86.1242 32.3066 85.0576 31.8648 84.2712 31.0784C83.4848 30.292 83.043 29.2254 83.043 28.1133V22.8464C83.0223 22.5767 82.9006 22.3248 82.7021 22.1409C82.5037 21.9571 82.2432 21.855 81.9727 21.855C81.7022 21.855 81.4416 21.9571 81.2432 22.1409C81.0447 22.3248 80.923 22.5767 80.9023 22.8464V28.1133C80.9103 29.6028 81.4425 31.042 82.4056 32.1784C83.3687 33.3148 84.7011 34.0758 86.1692 34.328V37.7367C86.1899 38.0064 86.3116 38.2584 86.51 38.4422C86.7085 38.626 86.969 38.7281 87.2395 38.7281C87.51 38.7281 87.7705 38.626 87.969 38.4422C88.1674 38.2584 88.2891 38.0064 88.3098 37.7367V34.328C89.781 34.0738 91.1153 33.3085 92.0776 32.167C93.0399 31.0256 93.5685 29.5811 93.5704 28.0882V22.8464C93.5712 22.7052 93.544 22.5653 93.4904 22.4346C93.4367 22.304 93.3577 22.1854 93.2578 22.0855C93.158 21.9857 93.0393 21.9066 92.9087 21.853C92.7781 21.7993 92.6381 21.7721 92.4969 21.773Z" fill="white"/>
<path d="M118.007 22.6707L117.963 22.52C117.914 22.3617 117.828 22.2174 117.712 22.0995C117.615 22.0006 117.5 21.9216 117.373 21.8672C117.242 21.8105 117.101 21.7806 116.958 21.7793C115.279 21.781 113.669 22.4488 112.481 23.6363C111.294 24.8238 110.626 26.4339 110.624 28.1133V33.3739C110.613 33.5213 110.632 33.6695 110.681 33.8092C110.73 33.9488 110.807 34.0769 110.907 34.1854C111.008 34.2939 111.129 34.3804 111.265 34.4396C111.4 34.4988 111.547 34.5294 111.695 34.5294C111.842 34.5294 111.989 34.4988 112.124 34.4396C112.26 34.3804 112.382 34.2939 112.482 34.1854C112.583 34.0769 112.66 33.9488 112.708 33.8092C112.757 33.6695 112.776 33.5213 112.765 33.3739V28.1133C112.767 27.0017 113.209 25.936 113.995 25.15C114.781 24.3639 115.847 23.9216 116.958 23.9199C117.241 23.9166 117.511 23.8021 117.709 23.6011C117.908 23.4002 118.019 23.129 118.019 22.8465C118.018 22.7877 118.014 22.729 118.007 22.6707Z" fill="white"/>
<path d="M62.7875 21.7729C62.5039 21.7729 62.2318 21.8852 62.0307 22.0851C61.8296 22.2851 61.7157 22.5565 61.7141 22.8401V33.3738C61.7028 33.5213 61.7221 33.6694 61.7707 33.8091C61.8194 33.9487 61.8964 34.0768 61.9969 34.1853C62.0974 34.2938 62.2192 34.3803 62.3547 34.4395C62.4902 34.4987 62.6365 34.5293 62.7844 34.5293C62.9323 34.5293 63.0786 34.4987 63.2141 34.4395C63.3496 34.3803 63.4714 34.2938 63.5719 34.1853C63.6724 34.0768 63.7494 33.9487 63.7981 33.8091C63.8467 33.6694 63.866 33.5213 63.8547 33.3738V22.8401C63.8547 22.5571 63.7423 22.2857 63.5421 22.0855C63.342 21.8854 63.0706 21.7729 62.7875 21.7729Z" fill="white"/>
<path d="M58.9336 21.8861C58.6795 21.7594 58.3857 21.7384 58.1163 21.8278C57.8469 21.9172 57.6238 22.1097 57.496 22.3632L53.1896 30.9696L48.8832 22.3632C48.7353 22.1544 48.5173 22.0057 48.269 21.9442C48.0206 21.8827 47.7584 21.9125 47.5302 22.0282C47.3019 22.1438 47.1228 22.3376 47.0255 22.5742C46.9282 22.8109 46.9191 23.0746 47 23.3173L52.2668 33.8573C52.3548 34.035 52.4909 34.1845 52.6595 34.2888C52.8282 34.3931 53.0227 34.448 53.221 34.4474C53.4187 34.4491 53.6128 34.3945 53.7807 34.29C53.9485 34.1855 54.0832 34.0354 54.1689 33.8573L59.442 23.3173C59.5036 23.1901 59.5392 23.052 59.5469 22.9109C59.5546 22.7698 59.5342 22.6286 59.4869 22.4954C59.4396 22.3623 59.3663 22.2399 59.2714 22.1352C59.1764 22.0306 59.0615 21.9459 58.9336 21.8861Z" fill="white"/>
<path d="M77.6469 17.3787C77.3627 17.3803 77.0906 17.4939 76.8897 17.6949C76.6887 17.8958 76.5751 18.1679 76.5734 18.4521V23.3611C75.4884 22.4035 74.1078 21.8467 72.6619 21.7837C71.216 21.7207 69.7922 22.1552 68.6279 23.0148C67.4636 23.8744 66.6292 25.1071 66.2637 26.5075C65.8982 27.9078 66.0238 29.3911 66.6195 30.7101C67.2152 32.029 68.2451 33.1039 69.5373 33.7555C70.8296 34.4071 72.3061 34.5961 73.7208 34.2909C75.1355 33.9856 76.4029 33.2047 77.3115 32.0783C78.2201 30.9518 78.7152 29.5479 78.7141 28.1007V18.4647C78.7157 18.3232 78.6894 18.1828 78.6366 18.0515C78.5838 17.9202 78.5055 17.8006 78.4064 17.6997C78.3072 17.5988 78.189 17.5185 78.0587 17.4634C77.9283 17.4083 77.7884 17.3795 77.6469 17.3787ZM76.5734 28.1132C76.5734 28.9426 76.3275 29.7533 75.8667 30.4429C75.406 31.1325 74.751 31.67 73.9848 31.9874C73.2186 32.3048 72.3754 32.3878 71.562 32.226C70.7485 32.0642 70.0013 31.6648 69.4149 31.0784C68.8284 30.4919 68.4291 29.7447 68.2672 28.9313C68.1054 28.1179 68.1885 27.2747 68.5059 26.5085C68.8233 25.7422 69.3607 25.0873 70.0503 24.6266C70.7399 24.1658 71.5507 23.9198 72.3801 23.9198C73.4917 23.9215 74.5573 24.3638 75.3434 25.1499C76.1294 25.9359 76.5718 27.0016 76.5734 28.1132Z" fill="white"/>
<path d="M28.8523 14.6292C29.9271 14.6303 30.9978 14.761 32.0413 15.0184C32.1697 15.0423 32.3024 15.021 32.4169 14.958C32.5313 14.8951 32.6204 14.7944 32.669 14.6732C32.6971 14.5988 32.7092 14.5193 32.7044 14.44C32.6997 14.3606 32.6782 14.2831 32.6415 14.2126C32.6048 14.1421 32.5536 14.0802 32.4912 14.0308C32.4289 13.9814 32.3569 13.9458 32.2798 13.9262C30.0314 13.382 27.6857 13.382 25.4373 13.9262C25.3603 13.9458 25.2882 13.9814 25.2259 14.0308C25.1636 14.0802 25.1124 14.1421 25.0756 14.2126C25.0389 14.2831 25.0175 14.3606 25.0127 14.44C25.008 14.5193 25.02 14.5988 25.0481 14.6732C25.0967 14.7944 25.1858 14.8951 25.3003 14.958C25.4147 15.021 25.5475 15.0423 25.6759 15.0184C26.715 14.7606 27.7816 14.6299 28.8523 14.6292Z" fill="white"/>
<path d="M35.7398 16.1232C35.7225 16.2313 35.7377 16.3422 35.7835 16.4417C35.8293 16.5411 35.9037 16.6247 35.9972 16.6819C38.4537 18.2324 40.3394 20.5397 41.3697 23.2558C42.4001 25.9718 42.5192 28.9493 41.7091 31.739C40.899 34.5287 39.2037 36.9793 36.8788 38.7211C34.554 40.4629 31.7257 41.4013 28.8208 41.3949C25.9159 41.3885 23.0918 40.4376 20.7747 38.6856C18.4575 36.9336 16.773 34.4756 15.9752 31.6823C15.1774 28.8891 15.3097 25.9121 16.352 23.2006C17.3943 20.4891 19.2901 18.1901 21.7535 16.6505C21.8475 16.5936 21.9226 16.5103 21.9695 16.4109C22.0164 16.3115 22.033 16.2005 22.0171 16.0918C22.003 16.0004 21.9665 15.914 21.9109 15.8403C21.8552 15.7665 21.7821 15.7077 21.6981 15.6691C21.6141 15.6306 21.5219 15.6134 21.4297 15.6193C21.3374 15.6251 21.2481 15.6537 21.1696 15.7026C18.5028 17.3754 16.4524 19.8703 15.328 22.8108C14.2036 25.7512 14.0662 28.9776 14.9365 32.003C15.8068 35.0284 17.6377 37.6886 20.1527 39.5821C22.6677 41.4756 25.7303 42.4997 28.8784 42.4997C32.0265 42.4997 35.0892 41.4756 37.6042 39.5821C40.1192 37.6886 41.95 35.0284 42.8204 32.003C43.6907 28.9776 43.5533 25.7512 42.4289 22.8108C41.3045 19.8703 39.2541 17.3754 36.5872 15.7026C36.5063 15.655 36.4147 15.6283 36.3209 15.625C36.227 15.6216 36.1338 15.6417 36.0497 15.6835C35.9655 15.7252 35.8931 15.7873 35.839 15.8641C35.7849 15.9409 35.7508 16.0299 35.7398 16.1232Z" fill="white"/>
<path d="M39.501 23.964C37.9105 22.427 36.0069 21.2514 33.9203 20.5176C33.245 20.2825 32.5551 20.0917 31.855 19.9464C29.8908 19.553 27.8681 19.553 25.9039 19.9464C25.2029 20.0853 24.5127 20.2741 23.8386 20.5113C21.7241 21.2443 19.7957 22.4313 18.1889 23.9891C18.0999 24.0761 18.0326 24.1828 17.9923 24.3005C17.9519 24.4182 17.9397 24.5438 17.9566 24.6671L19.3502 35.7846C20.4988 37.1908 21.9458 38.324 23.5863 39.1023C25.2268 39.8805 27.0198 40.2842 28.8355 40.2842C30.6513 40.2842 32.4443 39.8805 34.0848 39.1023C35.7253 38.324 37.1722 37.1908 38.3209 35.7846L38.528 34.1085C37.9842 34.3946 37.3786 34.5433 36.764 34.5416C36.2349 34.5381 35.712 34.4274 35.2269 34.2162C34.7417 34.005 34.3044 33.6977 33.9412 33.3129C33.5781 32.928 33.2967 32.4736 33.114 31.977C32.9313 31.4804 32.8511 30.952 32.8783 30.4235C32.852 29.8956 32.9328 29.3679 33.1159 28.872C33.299 28.3762 33.5805 27.9225 33.9436 27.5383C34.3066 27.1542 34.7437 26.8475 35.2284 26.6367C35.7131 26.4259 36.2355 26.3154 36.764 26.3118C37.6907 26.3121 38.5847 26.6541 39.275 27.2722C39.3059 27.2999 39.3352 27.3293 39.3629 27.3601L39.7019 24.642C39.7224 24.5211 39.7149 24.3972 39.6801 24.2797C39.6452 24.1622 39.584 24.0542 39.501 23.964ZM27.9065 34.1524C27.3547 34.4423 26.7406 34.5931 26.1174 34.5918C25.5825 34.5883 25.0539 34.4764 24.5634 34.263C24.0729 34.0496 23.6307 33.7391 23.2635 33.3502C22.8963 32.9613 22.6116 32.502 22.4267 32.0001C22.2418 31.4982 22.1605 30.964 22.1876 30.4298C22.1614 29.8961 22.2434 29.3627 22.4287 28.8615C22.614 28.3603 22.8987 27.9018 23.2659 27.5136C23.633 27.1253 24.0749 26.8154 24.5649 26.6024C25.055 26.3894 25.583 26.2777 26.1174 26.2741C27.0626 26.2717 27.976 26.6156 28.6849 27.2408C29.1179 27.6497 29.4605 28.1447 29.6908 28.6939C29.9211 29.2431 30.0339 29.8344 30.022 30.4298C30.0439 31.1845 29.8582 31.9307 29.4851 32.5871C29.1121 33.2436 28.566 33.785 27.9065 34.1524Z" fill="white"/>
<path d="M28.1354 27.8812C27.5879 27.3888 26.8755 27.1199 26.1392 27.1279C25.7182 27.1357 25.3031 27.2282 24.9186 27.3998C24.5341 27.5713 24.188 27.8185 23.901 28.1266C23.614 28.4347 23.392 28.7974 23.248 29.1931C23.1041 29.5888 23.0412 30.0094 23.0632 30.4298C23.0404 30.8508 23.1026 31.2721 23.2461 31.6685C23.3897 32.0649 23.6116 32.4284 23.8987 32.7371C24.1858 33.0459 24.5321 33.2937 24.9171 33.4656C25.302 33.6376 25.7177 33.7303 26.1392 33.7381C26.616 33.7373 27.0856 33.621 27.5077 33.3991C28.0357 33.1087 28.4726 32.6772 28.7697 32.1529C29.0668 31.6286 29.2123 31.032 29.1901 30.4298C29.2047 29.9546 29.1183 29.4816 28.9365 29.0422C28.7547 28.6029 28.4816 28.2071 28.1354 27.8812ZM26.3463 31.4907C26.2668 31.6332 26.1508 31.7519 26.01 31.8345C25.8693 31.9172 25.7091 31.9607 25.546 31.9607C25.3828 31.9607 25.2226 31.9172 25.0819 31.8345C24.9412 31.7519 24.8251 31.6332 24.7456 31.4907C24.5244 31.1449 24.4148 30.7395 24.4317 30.3294C24.4357 29.9274 24.5556 29.5351 24.777 29.1994C24.8651 29.0662 24.9855 28.9575 25.127 28.8833C25.2684 28.8091 25.4263 28.7718 25.586 28.7749C25.7457 28.778 25.902 28.8215 26.0404 28.9012C26.1788 28.9809 26.2949 29.0943 26.3777 29.2308C26.5945 29.5713 26.7018 29.97 26.6853 30.3733C26.6942 30.7763 26.5659 31.1704 26.3212 31.4907H26.3463Z" fill="white"/>
<path d="M25.7564 29.438C25.6532 29.438 25.5542 29.479 25.4812 29.552C25.4082 29.625 25.3672 29.724 25.3672 29.8272C25.3792 29.9211 25.425 30.0074 25.4961 30.07C25.5671 30.1326 25.6586 30.1671 25.7533 30.1671C25.8479 30.1671 25.9394 30.1326 26.0104 30.07C26.0815 30.0074 26.1273 29.9211 26.1393 29.8272C26.1402 29.7764 26.1309 29.7259 26.112 29.6787C26.0931 29.6315 26.0651 29.5886 26.0294 29.5524C25.9938 29.5161 25.9513 29.4874 25.9044 29.4677C25.8575 29.4481 25.8072 29.438 25.7564 29.438Z" fill="white"/>
<path d="M39.253 28.4461C39.1839 28.3457 39.1086 28.2452 39.0333 28.1511C38.9502 28.0586 38.8622 27.9705 38.7696 27.8874C38.7063 27.8242 38.6369 27.7675 38.5625 27.7179C38.0454 27.3341 37.4173 27.1291 36.7734 27.1341C36.4559 27.1326 36.1402 27.1813 35.838 27.2785C35.644 27.3385 35.4568 27.4184 35.2793 27.5171C35.1756 27.5789 35.075 27.6459 34.978 27.7179C34.5724 28.0427 34.2478 28.4573 34.0299 28.9291C33.812 29.4008 33.7068 29.9167 33.7225 30.4361C33.6841 31.2218 33.9421 31.9934 34.4455 32.5979C34.9489 33.2025 35.6609 33.5959 36.4407 33.7004H36.7671C36.8905 33.7068 37.0141 33.7068 37.1375 33.7004C37.4999 33.6621 37.8526 33.5601 38.1795 33.3991L38.4244 33.2547H38.4746L38.6943 33.0915C39.072 32.7673 39.3728 32.363 39.5747 31.908C39.7767 31.4531 39.8748 30.9588 39.8619 30.4612C39.8732 29.7426 39.6604 29.0382 39.253 28.4461ZM36.9743 31.4907C36.8894 31.6315 36.7697 31.7482 36.6269 31.8295C36.484 31.9109 36.3226 31.9542 36.1582 31.9553C35.9971 31.9475 35.8405 31.8998 35.7025 31.8166C35.5644 31.7333 35.4492 31.617 35.3672 31.4782C35.1385 31.1352 35.0243 30.7287 35.0408 30.3168C35.0426 29.9154 35.1603 29.523 35.3798 29.1869C35.4643 29.0542 35.5813 28.9453 35.7198 28.8706C35.8582 28.7959 36.0134 28.7578 36.1707 28.76C36.3329 28.7602 36.4922 28.8025 36.6331 28.8828C36.774 28.9632 36.8915 29.0788 36.9743 29.2183C37.1959 29.5569 37.3056 29.9565 37.2881 30.3608C37.3115 30.7618 37.2011 31.1592 36.9743 31.4907Z" fill="white"/>
<path d="M36.4025 29.438C36.3517 29.438 36.3014 29.4481 36.2545 29.4677C36.2076 29.4874 36.1651 29.5161 36.1295 29.5524C36.0939 29.5886 36.0658 29.6315 36.0469 29.6787C36.028 29.7259 36.0187 29.7764 36.0196 29.8272C36.0196 29.9288 36.0599 30.0262 36.1317 30.098C36.2036 30.1698 36.301 30.2101 36.4025 30.2101C36.4533 30.211 36.5038 30.2017 36.551 30.1828C36.5982 30.1639 36.6411 30.1359 36.6773 30.1002C36.7136 30.0646 36.7423 30.0221 36.762 29.9752C36.7816 29.9283 36.7917 29.878 36.7917 29.8272C36.7917 29.724 36.7507 29.625 36.6777 29.552C36.6047 29.479 36.5057 29.438 36.4025 29.438Z" fill="white"/>
<path d="M23.8352 20.5176C23.4899 18.333 23.1384 16.0669 22.8559 14.2401C22.4026 14.2401 21.9645 14.0766 21.622 13.7796C21.2795 13.4825 21.0557 13.0719 20.9916 12.6232C20.9275 12.1744 21.0274 11.7176 21.273 11.3365C21.5186 10.9555 21.8934 10.6758 22.3286 10.5489C22.8051 10.4379 23.3062 10.5166 23.7257 10.7685C24.1451 11.0205 24.4501 11.4257 24.576 11.8986C24.6801 12.3105 24.6419 12.7456 24.4675 13.1331C24.2932 13.5206 23.9929 13.8377 23.6155 14.0329L25.9005 19.9464C25.1995 20.0853 24.5093 20.2741 23.8352 20.5113V20.5176Z" fill="white"/>
<path d="M31.8516 19.94L34.1366 14.014C33.7439 13.787 33.4462 13.4259 33.2985 12.9971C33.1507 12.5682 33.1626 12.1004 33.3322 11.6797C33.5017 11.259 33.8173 10.9136 34.2212 10.7069C34.625 10.5003 35.0898 10.4464 35.5302 10.5551C35.9727 10.6894 36.3503 10.9818 36.5911 11.3765C36.8319 11.7713 36.919 12.2409 36.8359 12.6957C36.7545 13.1432 36.5138 13.5461 36.1584 13.83C35.803 14.1138 35.3569 14.2595 34.9024 14.24C34.6199 16.0605 34.2747 18.333 33.9169 20.5175C33.2416 20.2825 32.5517 20.0916 31.8516 19.9463V19.94Z" fill="white"/>
<path d="M134.226 19.6827C134.338 19.631 134.433 19.5475 134.497 19.4425C134.562 19.3376 134.595 19.2159 134.591 19.0927C134.591 18.6407 134.258 18.4272 133.768 18.4272H133.097C133.023 18.4272 132.953 18.4563 132.901 18.5081C132.849 18.5599 132.82 18.6302 132.82 18.7035V20.1473C132.82 20.2205 132.849 20.2908 132.901 20.3426C132.953 20.3944 133.023 20.4235 133.097 20.4235C133.17 20.4235 133.24 20.3944 133.292 20.3426C133.344 20.2908 133.373 20.2205 133.373 20.1473V19.7957H133.63L134.044 20.3168C134.069 20.3501 134.101 20.3771 134.138 20.3957C134.175 20.4142 134.216 20.4237 134.258 20.4235C134.293 20.4243 134.329 20.4182 134.362 20.4054C134.395 20.3926 134.425 20.3734 134.451 20.3489C134.476 20.3244 134.497 20.2951 134.511 20.2627C134.525 20.2302 134.533 20.1953 134.534 20.1598C134.535 20.0876 134.508 20.0178 134.459 19.9652L134.226 19.6827ZM133.737 19.3626H133.385V18.8918H133.737C133.931 18.8918 134.038 18.9797 134.038 19.1241C134.038 19.2684 133.919 19.3626 133.724 19.3626H133.737Z" fill="white"/>
<path d="M133.636 21.4465C133.233 21.454 132.837 21.3415 132.499 21.1233C132.161 20.9051 131.895 20.5911 131.736 20.2213C131.576 19.8515 131.531 19.4427 131.605 19.0469C131.679 18.6511 131.869 18.2863 132.151 17.999C132.433 17.7116 132.794 17.5147 133.188 17.4334C133.583 17.3521 133.992 17.39 134.365 17.5423C134.738 17.6946 135.057 17.9544 135.281 18.2886C135.506 18.6228 135.626 19.0163 135.626 19.4189C135.629 19.9512 135.422 20.4632 135.049 20.8431C134.676 21.223 134.168 21.4399 133.636 21.4465ZM133.636 17.7491C133.304 17.7428 132.978 17.8354 132.7 18.0151C132.421 18.1948 132.202 18.4533 132.071 18.7578C131.939 19.0623 131.902 19.399 131.963 19.725C132.024 20.0509 132.18 20.3514 132.412 20.5881C132.645 20.8248 132.942 20.9869 133.267 21.054C133.591 21.121 133.929 21.0898 134.236 20.9644C134.543 20.839 134.805 20.625 134.99 20.3498C135.175 20.0745 135.274 19.7505 135.274 19.4189C135.277 18.9804 135.107 18.5585 134.8 18.2455C134.493 17.9326 134.074 17.754 133.636 17.7491Z" fill="white"/>
</svg>
