<svg width="150" height="53" viewBox="0 0 150 53" fill="none" xmlns="http://www.w3.org/2000/svg">
<path d="M87.5818 20.0754C84.2521 20.0754 81.9258 22.3826 81.9258 25.6862V31.593C81.9264 31.7569 81.9598 31.9191 82.0239 32.07C82.0881 32.2209 82.1817 32.3575 82.2994 32.4718C82.417 32.586 82.5563 32.6756 82.709 32.7353C82.8617 32.795 83.0248 32.8236 83.1887 32.8195C83.3529 32.8223 83.5161 32.7927 83.6688 32.7323C83.8215 32.672 83.9608 32.582 84.0787 32.4676C84.1965 32.3533 84.2906 32.2167 84.3555 32.0659C84.4204 31.915 84.4549 31.7528 84.4569 31.5886V25.635C84.4569 23.6334 85.6852 22.3366 87.587 22.3366C89.5331 22.3366 90.7423 23.5995 90.7423 25.635V31.5886C90.7429 31.7526 90.7763 31.9148 90.8404 32.0657C90.9046 32.2166 90.9982 32.3532 91.1159 32.4674C91.2335 32.5817 91.3727 32.6713 91.5255 32.731C91.6782 32.7907 91.8413 32.8193 92.0052 32.8151C92.3352 32.8195 92.6535 32.6929 92.8903 32.463C93.127 32.233 93.2629 31.9186 93.2682 31.5886V25.6819C93.2665 22.3783 90.9306 20.0754 87.5818 20.0754Z" fill="#EDEEF2"/>
<path d="M102.459 20.0912C100.877 20.0912 99.7677 20.6641 99.088 21.1832V15.6983C99.088 15.0351 98.5221 14.4961 97.8268 14.4961C97.1315 14.4961 96.5664 15.0238 96.5664 15.6983V31.5905C96.5671 31.7539 96.6003 31.9155 96.664 32.0659C96.7278 32.2163 96.821 32.3525 96.938 32.4665C97.055 32.5805 97.1935 32.6701 97.3455 32.73C97.4976 32.7899 97.66 32.8189 97.8233 32.8153C98.1528 32.8197 98.4707 32.6932 98.7071 32.4636C98.9435 32.2341 99.0793 31.9201 99.0845 31.5905V25.6465C99.0845 23.2213 100.699 22.3567 102.209 22.3567C104.153 22.3567 105.359 23.6179 105.359 25.6465V31.5905C105.36 31.7543 105.393 31.9163 105.457 32.067C105.522 32.2176 105.615 32.354 105.733 32.4681C105.85 32.5822 105.989 32.6717 106.142 32.7313C106.294 32.7909 106.457 32.8195 106.621 32.8153C106.95 32.8197 107.268 32.6932 107.504 32.4636C107.74 32.234 107.876 31.92 107.881 31.5905V25.6933C107.885 22.3949 105.654 20.0912 102.459 20.0912Z" fill="#EDEEF2"/>
<path d="M121.263 20.084C120.555 20.084 120.001 20.6126 120.001 21.287V27.2546C120.001 29.2839 118.794 30.5452 116.85 30.5452C114.951 30.5452 113.726 29.2536 113.726 27.2546V21.2905C113.726 20.6274 113.16 20.0875 112.464 20.0875C111.769 20.0875 111.203 20.6161 111.203 21.2905V27.1929C111.203 30.5061 113.526 32.8193 116.852 32.8193C120.192 32.8193 122.526 30.5061 122.526 27.1929V21.2905C122.526 20.6239 121.957 20.084 121.263 20.084Z" fill="#EDEEF2"/>
<path d="M64.6836 30.4186H57.2012L65.4821 22.1422C65.5953 22.0382 65.6857 21.912 65.7479 21.7714C65.81 21.6309 65.8425 21.479 65.8432 21.3254C65.8432 20.6883 65.2999 20.1692 64.628 20.1692H54.9062C54.2387 20.1692 53.6953 20.69 53.6953 21.3254C53.6953 21.9607 54.25 22.4807 54.9062 22.4807H61.9771L53.7048 30.7102L53.6953 30.7206C53.5642 30.8639 53.3203 31.1312 53.3203 31.5478C53.3203 32.198 53.875 32.7275 54.5564 32.7275H64.6836C65.3511 32.7275 65.8945 32.2067 65.8945 31.5713C65.8945 30.9359 65.3606 30.4186 64.6836 30.4186Z" fill="#EDEEF2"/>
<path d="M132.535 20.0533C130.919 20.0533 129.41 20.5793 128.233 21.5454V15.6595C128.233 14.9972 127.667 14.4573 126.971 14.4573C126.275 14.4573 125.711 14.9859 125.711 15.6595V26.1172C125.711 26.197 125.711 26.2769 125.711 26.3576V26.3758C125.76 28.0198 126.588 29.8357 127.83 30.9762L127.847 30.9919C127.94 31.0827 128.035 31.1695 128.134 31.2523L128.3 31.4042V31.3903C129.456 32.3164 130.936 32.8199 132.534 32.8199C136.252 32.8199 139.164 30.0154 139.164 26.434C139.164 22.8526 136.253 20.0533 132.535 20.0533ZM136.755 26.4401C136.755 28.7507 134.908 30.5596 132.55 30.5596C130.259 30.5596 128.462 28.8627 128.37 26.6241V26.2673C128.462 24.0166 130.259 22.3196 132.55 22.3196C134.908 22.3196 136.755 24.1294 136.755 26.4401Z" fill="#EDEEF2"/>
<path d="M78.0026 28.8498C77.579 28.8498 77.3082 29.0946 77.0478 29.3315L77.0296 29.3498C76.6672 29.7692 76.2178 30.1045 75.7126 30.3325C75.2074 30.5605 74.6586 30.6757 74.1043 30.67C73.2739 30.6745 72.4637 30.4136 71.7919 29.9253L78.3628 23.3432C78.6146 23.0654 78.7274 22.8007 78.7274 22.4839C78.7236 22.3127 78.6837 22.1442 78.6102 21.9896C78.5368 21.8349 78.4315 21.6975 78.3012 21.5864C77.2301 20.5968 75.6972 20.03 74.1043 20.03C70.5168 20.03 67.707 22.8502 67.707 26.4532C67.707 30.0563 70.5168 32.8765 74.1043 32.8765C75.9819 32.8765 77.7066 32.1057 78.8324 30.7655C79.0382 30.5303 79.171 30.2221 79.171 29.9791C79.1727 29.3324 78.6693 28.8498 78.0026 28.8498ZM70.4725 28.3064C70.2076 27.7234 70.0711 27.0902 70.0724 26.4498C70.0724 24.0836 71.844 22.2304 74.1061 22.2304C74.7714 22.2235 75.4244 22.4095 75.9862 22.766L70.4725 28.3064Z" fill="#EDEEF2"/>
<path d="M26.8819 42.5002C26.033 42.4982 25.2194 42.1601 24.619 41.5599C24.0187 40.9597 23.6804 40.1462 23.6781 39.2973V34.2065L20.0767 37.8061C19.4735 38.3953 18.6624 38.723 17.8192 38.7181C16.9761 38.7132 16.1688 38.3761 15.5726 37.78C14.9763 37.1838 14.6391 36.3767 14.634 35.5335C14.629 34.6904 14.9565 33.8792 15.5456 33.276L19.1461 29.6764H14.0535C13.6284 29.6834 13.2061 29.6057 12.8113 29.4478C12.4165 29.29 12.0571 29.0552 11.754 28.757C11.4509 28.4588 11.2101 28.1033 11.0458 27.7112C10.8815 27.3191 10.7969 26.8982 10.7969 26.473C10.7969 26.0478 10.8815 25.6269 11.0458 25.2348C11.2101 24.8427 11.4509 24.4872 11.754 24.189C12.0571 23.8909 12.4165 23.656 12.8113 23.4982C13.2061 23.3403 13.6284 23.2626 14.0535 23.2696H19.1461L15.5456 19.6692C15.2424 19.3729 15.0009 19.0195 14.8353 18.6293C14.6696 18.2391 14.5831 17.8199 14.5806 17.396C14.5782 16.9721 14.6599 16.5519 14.821 16.1598C14.9821 15.7677 15.2194 15.4115 15.5192 15.1118C15.819 14.8121 16.1752 14.5748 16.5674 14.4138C16.9595 14.2528 17.3797 14.1711 17.8036 14.1737C18.2275 14.1762 18.6467 14.2629 19.0369 14.4286C19.4271 14.5943 19.7805 14.8358 20.0767 15.1391L23.6781 18.7395V13.6522C23.6919 12.8115 24.0356 12.0099 24.635 11.4203C25.2344 10.8307 26.0416 10.5002 26.8824 10.5002C27.7232 10.5002 28.5303 10.8307 29.1297 11.4203C29.7291 12.0099 30.0728 12.8115 30.0867 13.6522V18.7439L33.6872 15.1434C34.2904 14.5542 35.1015 14.2265 35.9446 14.2314C36.7878 14.2363 37.595 14.5734 38.1913 15.1695C38.7876 15.7656 39.1248 16.5728 39.1299 17.416C39.1349 18.2591 38.8074 19.0703 38.2183 19.6735L34.6177 23.2696H39.7017C40.1268 23.2626 40.5491 23.3403 40.9439 23.4982C41.3387 23.656 41.6981 23.8909 42.0012 24.189C42.3043 24.4872 42.545 24.8427 42.7094 25.2348C42.8737 25.6269 42.9583 26.0478 42.9583 26.473C42.9583 26.8982 42.8737 27.3191 42.7094 27.7112C42.545 28.1033 42.3043 28.4588 42.0012 28.757C41.6981 29.0552 41.3387 29.29 40.9439 29.4478C40.5491 29.6057 40.1268 29.6834 39.7017 29.6764H34.6177L38.2191 33.276C38.5166 33.5735 38.7525 33.9268 38.9135 34.3155C39.0744 34.7043 39.1572 35.1209 39.1571 35.5416C39.157 35.9624 39.0741 36.379 38.913 36.7677C38.7519 37.1564 38.5158 37.5095 38.2183 37.807C37.9207 38.1044 37.5675 38.3403 37.1787 38.5013C36.79 38.6622 36.3733 38.745 35.9526 38.7449C35.5318 38.7448 35.1152 38.6619 34.7265 38.5008C34.3378 38.3397 33.9847 38.1037 33.6872 37.8061L30.0867 34.2056V39.2973C30.0844 40.1464 29.7459 40.96 29.1454 41.5602C28.5448 42.1604 27.731 42.4984 26.8819 42.5002ZM24.7987 31.5V39.2973C24.7987 39.8498 25.0182 40.3797 25.4089 40.7704C25.7995 41.161 26.3294 41.3805 26.8819 41.3805C27.4344 41.3805 27.9643 41.161 28.355 40.7704C28.7457 40.3797 28.9652 39.8498 28.9652 39.2973V31.5L34.4797 37.0136C34.6717 37.2131 34.9016 37.3723 35.1559 37.482C35.4102 37.5916 35.6837 37.6495 35.9606 37.6521C36.2375 37.6548 36.5122 37.6022 36.7685 37.4975C37.0249 37.3928 37.2578 37.2381 37.4536 37.0423C37.6494 36.8465 37.8043 36.6137 37.909 36.3574C38.0138 36.1011 38.0665 35.8264 38.0639 35.5495C38.0613 35.2727 38.0035 34.9991 37.894 34.7448C37.7844 34.4904 37.6252 34.2605 37.4258 34.0685L31.9112 28.5549H39.7017C40.2542 28.5549 40.7841 28.3354 41.1748 27.9448C41.5655 27.5541 41.785 27.0242 41.785 26.4717C41.785 25.9192 41.5655 25.3893 41.1748 24.9987C40.7841 24.608 40.2542 24.3885 39.7017 24.3885H31.9104L37.4258 18.8749C37.6252 18.6829 37.7844 18.453 37.894 18.1987C38.0035 17.9444 38.0613 17.6708 38.0639 17.3939C38.0665 17.117 38.0138 16.8424 37.909 16.586C37.8043 16.3297 37.6494 16.0969 37.4536 15.9011C37.2578 15.7054 37.0249 15.5506 36.7685 15.4459C36.5122 15.3412 36.2375 15.2886 35.9606 15.2913C35.6837 15.294 35.4102 15.3518 35.1559 15.4614C34.9016 15.5711 34.6717 15.7303 34.4797 15.9298L28.9652 21.4451V13.6522C28.9652 13.0997 28.7457 12.5698 28.355 12.1791C27.9643 11.7884 27.4344 11.569 26.8819 11.569C26.3294 11.569 25.7995 11.7884 25.4089 12.1791C25.0182 12.5698 24.7987 13.0997 24.7987 13.6522V21.4494L19.2842 15.9359C18.8911 15.5574 18.3653 15.3482 17.8196 15.3533C17.274 15.3584 16.7521 15.5774 16.3662 15.9632C15.9804 16.3489 15.7612 16.8707 15.756 17.4163C15.7507 17.962 15.9597 18.4879 16.3381 18.881L21.8535 24.3946H14.0535C13.501 24.3946 12.9711 24.6141 12.5804 25.0047C12.1897 25.3954 11.9702 25.9253 11.9702 26.4778C11.9702 27.0303 12.1897 27.5602 12.5804 27.9508C12.9711 28.3415 13.501 28.561 14.0535 28.561H21.8535L16.3381 34.0745C15.9597 34.4677 15.7507 34.9936 15.756 35.5392C15.7612 36.0848 15.9804 36.6066 16.3662 36.9924C16.7521 37.3782 17.274 37.5971 17.8196 37.6022C18.3653 37.6073 18.8911 37.3982 19.2842 37.0197L24.7987 31.5Z" fill="#EDEEF2"/>
</svg>
