<?xml version="1.0" encoding="utf-8"?>
<!-- Generator: Adobe Illustrator 22.0.1, SVG Export Plug-In . SVG Version: 6.00 Build 0)  -->
<svg version="1.1" xmlns="http://www.w3.org/2000/svg" xmlns:xlink="http://www.w3.org/1999/xlink" x="0px" y="0px"
	 viewBox="0 0 800 600" style="enable-background:new 0 0 800 600;" xml:space="preserve">
<style type="text/css">
	.st0{fill:#E8F6F6;stroke:#161616;stroke-width:4;stroke-linejoin:round;stroke-miterlimit:10;}
	.st1{fill:#A8ABCE;stroke:#161616;stroke-width:4;stroke-linejoin:round;stroke-miterlimit:10;}
	.st2{fill:#161616;}
	.st3{fill:#D6D6D6;stroke:#161616;stroke-width:4;stroke-linejoin:round;stroke-miterlimit:10;}
	.st4{fill:#FF4315;}
	.st5{fill:url(#SVGID_1_);}
	.st6{fill:#DDDDDD;}
	.st7{fill:#EFEFEF;stroke:#161616;stroke-width:4;stroke-linejoin:round;stroke-miterlimit:10;}
	.st8{fill:#FFD2DC;stroke:#161616;stroke-width:4;stroke-linejoin:round;stroke-miterlimit:10;}
	.st9{fill:none;stroke:#161616;stroke-width:4;stroke-linejoin:round;stroke-miterlimit:10;}
	.st10{fill:#D4FFFA;stroke:#161616;stroke-width:4;stroke-linejoin:round;stroke-miterlimit:10;}
	.st11{opacity:0.5;fill:url(#SVGID_2_);}
	.st12{opacity:0.5;fill:url(#SVGID_3_);}
	.st13{opacity:0.5;fill:url(#SVGID_4_);}
	.st14{opacity:0.5;fill:url(#SVGID_5_);}
	.st15{opacity:0.5;fill:url(#SVGID_6_);}
	.st16{opacity:0.5;fill:url(#SVGID_7_);}
	.st17{fill:#B7B7B7;stroke:#161616;stroke-width:4;stroke-linejoin:round;stroke-miterlimit:10;}
	.st18{fill:#C4C2B3;stroke:#161616;stroke-width:4;stroke-linejoin:round;stroke-miterlimit:10;}
	.st19{fill:none;stroke:#161616;stroke-width:3.8945;stroke-linejoin:round;stroke-miterlimit:10;}
	.st20{fill:none;stroke:#161616;stroke-width:3;stroke-linejoin:round;stroke-miterlimit:10;}
	.st21{opacity:0.5;fill:#212121;}
	.st22{opacity:0.1;fill:#212121;}
	.st23{fill:none;stroke:#161616;stroke-width:3.2859;stroke-linejoin:round;stroke-miterlimit:10;}
</style>
<g id="bg">
</g>
<g id="buildings">
	<g>
		<path class="st0" d="M205,492c-69.6,0-128.6,45.3-149.2,108h298.4C333.6,537.3,274.6,492,205,492z"/>
	</g>
	<g>
		<g>
			<path class="st1" d="M205.5,516c-69.6,0-128.6,35.2-149.2,84h298.4C334.1,551.2,275.1,516,205.5,516z"/>
		</g>
		<g>
			<path class="st2" d="M177,543h-9c-2.5,0-4.5-2-4.5-4.5l0,0c0-2.5,2-4.5,4.5-4.5h9c2.5,0,4.5,2,4.5,4.5l0,0
				C181.5,541,179.5,543,177,543z"/>
			<path class="st2" d="M199,543h-9c-2.5,0-4.5-2-4.5-4.5l0,0c0-2.5,2-4.5,4.5-4.5h9c2.5,0,4.5,2,4.5,4.5l0,0
				C203.5,541,201.5,543,199,543z"/>
			<path class="st2" d="M221,543h-9c-2.5,0-4.5-2-4.5-4.5l0,0c0-2.5,2-4.5,4.5-4.5h9c2.5,0,4.5,2,4.5,4.5l0,0
				C225.5,541,223.5,543,221,543z"/>
			<path class="st2" d="M243,543h-9c-2.5,0-4.5-2-4.5-4.5l0,0c0-2.5,2-4.5,4.5-4.5h9c2.5,0,4.5,2,4.5,4.5l0,0
				C247.5,541,245.5,543,243,543z"/>
		</g>
	</g>
</g>
<g id="bg_light">
</g>
<g id="cn_tower">
	<g>
		<path class="st3" d="M455.2,398.1c0-14.2-11.5-25.8-25.8-25.8h-1.8h-6.9c6.6,0,12-5.4,12-12s-5.4-12-12-12h-1.8h-6V181.8h-1.7
			c3.1-1.5,5.3-4.6,5.3-8.3c0-5-4.1-9.1-9.1-9.2v-56.1h-0.9V84.3h-1.8V60.3h-1.8h-0.9V18H400h-1.8v42.3h-0.9h-1.8v23.9h-1.8v23.9
			h-0.9v56.1c-5,0.1-9.1,4.1-9.1,9.2c0,3.7,2.2,6.8,5.3,8.3h-1.7v166.6h-6h-1.8c-6.6,0-12,5.4-12,12s5.4,12,12,12h-6.9h-1.8
			c-14.2,0-25.8,11.5-25.8,25.8c0,14.2,11.5,25.8,25.8,25.8H370c-3.6,0-6.4,2.9-6.4,6.4c0,3.6,2.9,6.4,6.4,6.4h14.6l-26.9,498.8h1.8
			h81h1.8l-26.9-498.8h13.5c3.6,0,6.4-2.9,6.4-6.4c0-3.6-2.9-6.4-6.4-6.4h0.5C443.7,423.8,455.2,412.3,455.2,398.1z"/>
		<g>
			<rect x="399" y="18" class="st4" width="2" height="42"/>
		</g>
	</g>
</g>
<g id="moon">
	<g>
		
			<linearGradient id="SVGID_1_" gradientUnits="userSpaceOnUse" x1="728.4213" y1="198.1933" x2="646.1351" y2="245.7012" gradientTransform="matrix(-0.7071 0.7071 -0.7071 -0.7071 1278.4194 -194.5387)">
			<stop  offset="0.3207" style="stop-color:#FFFFFF"/>
			<stop  offset="0.7775" style="stop-color:#FCFFAA"/>
		</linearGradient>
		<circle class="st5" cx="635.5" cy="134.5" r="47.5"/>
	</g>
</g>
<g id="fireworks">
	<circle class="st6" cx="151" cy="189" r="2"/>
	<circle class="st6" cx="179" cy="296" r="2"/>
	<circle class="st6" cx="668.3" cy="178.1" r="2"/>
	<circle class="st6" cx="618.4" cy="241.7" r="2"/>
	<g>
		<rect x="326.1" y="192.4" class="st6" width="1.5" height="4.6"/>
		
			<rect x="333" y="189.7" transform="matrix(0.7071 -0.7071 0.7071 0.7071 -37.9595 292.2426)" class="st6" width="1.5" height="4.6"/>
		
			<rect x="335.9" y="182.8" transform="matrix(4.466278e-11 -1 1 4.466278e-11 151.6 521.8182)" class="st6" width="1.5" height="4.6"/>
		
			<rect x="333.2" y="175.9" transform="matrix(-0.7071 -0.7071 0.7071 -0.7071 444.0608 540.3596)" class="st6" width="1.5" height="4.6"/>
		
			<rect x="326.3" y="173" transform="matrix(-1 -9.051616e-11 9.051616e-11 -1 654.2182 350.5818)" class="st6" width="1.5" height="4.6"/>
		
			<rect x="319.4" y="175.8" transform="matrix(-0.7071 0.7071 -0.7071 -0.7071 672.5414 77.5392)" class="st6" width="1.5" height="4.6"/>
		
			<rect x="316.5" y="182.6" transform="matrix(-1.357751e-10 1 -1 -1.357751e-10 502.1818 -132.4)" class="st6" width="1.5" height="4.6"/>
		
			<rect x="319.3" y="189.5" transform="matrix(0.7071 0.7071 -0.7071 0.7071 229.3574 -170.1414)" class="st6" width="1.5" height="4.6"/>
	</g>
	<g>
		<rect x="469.2" y="136.8" class="st6" width="1.4" height="4.2"/>
		
			<rect x="475.5" y="134.3" transform="matrix(0.7071 -0.7071 0.7071 0.7071 43.0585 376.6803)" class="st6" width="1.4" height="4.2"/>
		<rect x="478.2" y="128" transform="matrix(4.677398e-11 -1 1 4.677398e-11 348.8 609)" class="st6" width="1.4" height="4.2"/>
		
			<rect x="475.7" y="121.7" transform="matrix(-0.7071 -0.7071 0.7071 -0.7071 725.6802 548.1415)" class="st6" width="1.4" height="4.2"/>
		
			<rect x="469.4" y="119" transform="matrix(-1 -8.965019e-11 8.965019e-11 -1 940.2 242.2)" class="st6" width="1.4" height="4.2"/>
		
			<rect x="463.1" y="121.5" transform="matrix(-0.7071 0.7071 -0.7071 -0.7071 879.1415 -116.8803)" class="st6" width="1.4" height="4.2"/>
		
			<rect x="460.4" y="127.8" transform="matrix(-1.364244e-10 1 -1 -1.364244e-10 591 -331.2)" class="st6" width="1.4" height="4.2"/>
		
			<rect x="462.9" y="134.1" transform="matrix(0.7071 0.7071 -0.7071 0.7071 232.1197 -287.9415)" class="st6" width="1.4" height="4.2"/>
	</g>
	<g>
		<rect x="469.1" y="236.4" class="st6" width="1.5" height="4.6"/>
		
			<rect x="476" y="233.7" transform="matrix(0.7071 -0.7071 0.7071 0.7071 -27.1885 406.2462)" class="st6" width="1.5" height="4.6"/>
		
			<rect x="478.9" y="226.8" transform="matrix(4.644913e-11 -1 1 4.644913e-11 250.6 708.8182)" class="st6" width="1.5" height="4.6"/>
		
			<rect x="476.2" y="219.9" transform="matrix(-0.7071 -0.7071 0.7071 -0.7071 657.0643 716.5885)" class="st6" width="1.5" height="4.6"/>
		
			<rect x="469.3" y="217" transform="matrix(-1 -9.051616e-11 9.051616e-11 -1 940.2182 438.5818)" class="st6" width="1.5" height="4.6"/>
		
			<rect x="462.4" y="219.8" transform="matrix(-0.7071 0.7071 -0.7071 -0.7071 947.7703 51.5357)" class="st6" width="1.5" height="4.6"/>
		
			<rect x="459.5" y="226.6" transform="matrix(-1.357751e-10 1 -1 -1.357751e-10 689.1818 -231.4)" class="st6" width="1.5" height="4.6"/>
		
			<rect x="462.3" y="233.5" transform="matrix(0.7071 0.7071 -0.7071 0.7071 302.3539 -258.3703)" class="st6" width="1.5" height="4.6"/>
	</g>
	<g>
		<path class="st6" d="M205.3,203L205.3,203c-0.7,0-1.2-0.6-1.2-1.2v-5.3c0-0.7,0.6-1.2,1.2-1.2l0,0c0.7,0,1.2,0.6,1.2,1.2v5.3
			C206.5,202.4,206,203,205.3,203z"/>
		<path class="st6" d="M201.4,199.1L201.4,199.1c0-0.7,0.6-1.2,1.2-1.2h5.3c0.7,0,1.2,0.6,1.2,1.2l0,0c0,0.7-0.6,1.2-1.2,1.2h-5.3
			C202,200.4,201.4,199.8,201.4,199.1z"/>
	</g>
	<g>
		<path class="st6" d="M83.7,204.7L83.7,204.7c-0.7,0-1.2-0.6-1.2-1.2v-5.3c0-0.7,0.6-1.2,1.2-1.2l0,0c0.7,0,1.2,0.6,1.2,1.2v5.3
			C84.9,204.2,84.4,204.7,83.7,204.7z"/>
		<path class="st6" d="M79.8,200.9L79.8,200.9c0-0.7,0.6-1.2,1.2-1.2h5.3c0.7,0,1.2,0.6,1.2,1.2l0,0c0,0.7-0.6,1.2-1.2,1.2h-5.3
			C80.4,202.1,79.8,201.5,79.8,200.9z"/>
	</g>
	<g>
		<path class="st6" d="M556.7,97L556.7,97c0.7,0,1.2-0.6,1.2-1.2v-5.3c0-0.7-0.6-1.2-1.2-1.2h0c-0.7,0-1.2,0.6-1.2,1.2v5.3
			C555.5,96.4,556,97,556.7,97z"/>
		<path class="st6" d="M560.6,93.1L560.6,93.1c0-0.7-0.6-1.2-1.2-1.2h-5.3c-0.7,0-1.2,0.6-1.2,1.2l0,0c0,0.7,0.6,1.2,1.2,1.2h5.3
			C560,94.4,560.6,93.8,560.6,93.1z"/>
	</g>
	<g>
		<path class="st6" d="M660.3,116.7L660.3,116.7c0.7,0,1.2-0.6,1.2-1.2v-5.3c0-0.7-0.6-1.2-1.2-1.2h0c-0.7,0-1.2,0.6-1.2,1.2v5.3
			C659.1,116.2,659.6,116.7,660.3,116.7z"/>
		<path class="st6" d="M664.2,112.9L664.2,112.9c0-0.7-0.6-1.2-1.2-1.2h-5.3c-0.7,0-1.2,0.6-1.2,1.2l0,0c0,0.7,0.6,1.2,1.2,1.2h5.3
			C663.6,114.1,664.2,113.5,664.2,112.9z"/>
	</g>
</g>
<g id="clouds">
	<g>
		<rect x="-0.1" y="455.5" class="st7" width="64.5" height="144.5"/>
		<g>
			<g>
				<path class="st2" d="M23.5,559.7h-8c-1.9,0-3.5-1.6-3.5-3.5v-6.8c0-1.9,1.6-3.5,3.5-3.5h8c1.9,0,3.5,1.6,3.5,3.5v6.8
					C27,558.1,25.4,559.7,23.5,559.7z"/>
				<path class="st2" d="M48.8,559.7h-8c-1.9,0-3.5-1.6-3.5-3.5v-6.8c0-1.9,1.6-3.5,3.5-3.5h8c1.9,0,3.5,1.6,3.5,3.5v6.8
					C52.3,558.1,50.7,559.7,48.8,559.7z"/>
			</g>
			<g>
				<path class="st2" d="M23.5,585h-8c-1.9,0-3.5-1.6-3.5-3.5v-6.8c0-1.9,1.6-3.5,3.5-3.5h8c1.9,0,3.5,1.6,3.5,3.5v6.8
					C27,583.4,25.4,585,23.5,585z"/>
				<path class="st2" d="M48.8,585h-8c-1.9,0-3.5-1.6-3.5-3.5v-6.8c0-1.9,1.6-3.5,3.5-3.5h8c1.9,0,3.5,1.6,3.5,3.5v6.8
					C52.3,583.4,50.7,585,48.8,585z"/>
			</g>
			<g>
				<path class="st2" d="M23.5,534.4h-8c-1.9,0-3.5-1.6-3.5-3.5v-6.8c0-1.9,1.6-3.5,3.5-3.5h8c1.9,0,3.5,1.6,3.5,3.5v6.8
					C27,532.8,25.4,534.4,23.5,534.4z"/>
				<path class="st2" d="M48.8,534.4h-8c-1.9,0-3.5-1.6-3.5-3.5v-6.8c0-1.9,1.6-3.5,3.5-3.5h8c1.9,0,3.5,1.6,3.5,3.5v6.8
					C52.3,532.8,50.7,534.4,48.8,534.4z"/>
			</g>
			<g>
				<path class="st2" d="M23.5,509.1h-8c-1.9,0-3.5-1.6-3.5-3.5v-6.8c0-1.9,1.6-3.5,3.5-3.5h8c1.9,0,3.5,1.6,3.5,3.5v6.8
					C27,507.5,25.4,509.1,23.5,509.1z"/>
				<path class="st2" d="M48.8,509.1h-8c-1.9,0-3.5-1.6-3.5-3.5v-6.8c0-1.9,1.6-3.5,3.5-3.5h8c1.9,0,3.5,1.6,3.5,3.5v6.8
					C52.3,507.5,50.7,509.1,48.8,509.1z"/>
			</g>
			<g>
				<path class="st2" d="M23.5,483.8h-8c-1.9,0-3.5-1.6-3.5-3.5v-6.8c0-1.9,1.6-3.5,3.5-3.5h8c1.9,0,3.5,1.6,3.5,3.5v6.8
					C27,482.2,25.4,483.8,23.5,483.8z"/>
				<path class="st2" d="M48.8,483.8h-8c-1.9,0-3.5-1.6-3.5-3.5v-6.8c0-1.9,1.6-3.5,3.5-3.5h8c1.9,0,3.5,1.6,3.5,3.5v6.8
					C52.3,482.2,50.7,483.8,48.8,483.8z"/>
			</g>
		</g>
	</g>
	<g>
		<rect x="734.2" y="399" class="st8" width="61" height="201"/>
		<g>
			<g>
				<g>
					<path class="st2" d="M755.7,510H747c-1.9,0-3.5-1.6-3.5-3.5V499c0-1.9,1.6-3.5,3.5-3.5h8.7c1.9,0,3.5,1.6,3.5,3.5v7.5
						C759.2,508.5,757.6,510,755.7,510z"/>
					<path class="st2" d="M782.3,510h-8.7c-1.9,0-3.5-1.6-3.5-3.5V499c0-1.9,1.6-3.5,3.5-3.5h8.7c1.9,0,3.5,1.6,3.5,3.5v7.5
						C785.8,508.5,784.3,510,782.3,510z"/>
				</g>
				<g>
					<path class="st2" d="M755.7,536.7H747c-1.9,0-3.5-1.6-3.5-3.5v-7.5c0-1.9,1.6-3.5,3.5-3.5h8.7c1.9,0,3.5,1.6,3.5,3.5v7.5
						C759.2,535.1,757.6,536.7,755.7,536.7z"/>
					<path class="st2" d="M782.3,536.7h-8.7c-1.9,0-3.5-1.6-3.5-3.5v-7.5c0-1.9,1.6-3.5,3.5-3.5h8.7c1.9,0,3.5,1.6,3.5,3.5v7.5
						C785.8,535.1,784.3,536.7,782.3,536.7z"/>
				</g>
				<g>
					<path class="st2" d="M755.7,483.4H747c-1.9,0-3.5-1.6-3.5-3.5v-7.5c0-1.9,1.6-3.5,3.5-3.5h8.7c1.9,0,3.5,1.6,3.5,3.5v7.5
						C759.2,481.8,757.6,483.4,755.7,483.4z"/>
					<path class="st2" d="M782.3,483.4h-8.7c-1.9,0-3.5-1.6-3.5-3.5v-7.5c0-1.9,1.6-3.5,3.5-3.5h8.7c1.9,0,3.5,1.6,3.5,3.5v7.5
						C785.8,481.8,784.3,483.4,782.3,483.4z"/>
				</g>
				<g>
					<path class="st2" d="M755.7,456.7H747c-1.9,0-3.5-1.6-3.5-3.5v-7.5c0-1.9,1.6-3.5,3.5-3.5h8.7c1.9,0,3.5,1.6,3.5,3.5v7.5
						C759.2,455.2,757.6,456.7,755.7,456.7z"/>
					<path class="st2" d="M782.3,456.7h-8.7c-1.9,0-3.5-1.6-3.5-3.5v-7.5c0-1.9,1.6-3.5,3.5-3.5h8.7c1.9,0,3.5,1.6,3.5,3.5v7.5
						C785.8,455.2,784.3,456.7,782.3,456.7z"/>
				</g>
				<g>
					<path class="st2" d="M755.7,430.1H747c-1.9,0-3.5-1.6-3.5-3.5v-7.5c0-1.9,1.6-3.5,3.5-3.5h8.7c1.9,0,3.5,1.6,3.5,3.5v7.5
						C759.2,428.5,757.6,430.1,755.7,430.1z"/>
					<path class="st2" d="M782.3,430.1h-8.7c-1.9,0-3.5-1.6-3.5-3.5v-7.5c0-1.9,1.6-3.5,3.5-3.5h8.7c1.9,0,3.5,1.6,3.5,3.5v7.5
						C785.8,428.5,784.3,430.1,782.3,430.1z"/>
				</g>
			</g>
			<g>
				<g>
					<path class="st2" d="M755.7,588.7H747c-1.9,0-3.5-1.6-3.5-3.5v-7.5c0-1.9,1.6-3.5,3.5-3.5h8.7c1.9,0,3.5,1.6,3.5,3.5v7.5
						C759.2,587.2,757.6,588.7,755.7,588.7z"/>
					<path class="st2" d="M782.3,588.7h-8.7c-1.9,0-3.5-1.6-3.5-3.5v-7.5c0-1.9,1.6-3.5,3.5-3.5h8.7c1.9,0,3.5,1.6,3.5,3.5v7.5
						C785.8,587.2,784.3,588.7,782.3,588.7z"/>
				</g>
				<g>
					<path class="st2" d="M755.7,562.1H747c-1.9,0-3.5-1.6-3.5-3.5v-7.5c0-1.9,1.6-3.5,3.5-3.5h8.7c1.9,0,3.5,1.6,3.5,3.5v7.5
						C759.2,560.5,757.6,562.1,755.7,562.1z"/>
					<path class="st2" d="M782.3,562.1h-8.7c-1.9,0-3.5-1.6-3.5-3.5v-7.5c0-1.9,1.6-3.5,3.5-3.5h8.7c1.9,0,3.5,1.6,3.5,3.5v7.5
						C785.8,560.5,784.3,562.1,782.3,562.1z"/>
				</g>
			</g>
		</g>
	</g>
	<g>
		<rect x="531.2" y="524" class="st7" width="63.3" height="76"/>
		<g>
			<g>
				<rect x="547.9" y="533" class="st9" width="8" height="14"/>
				<rect x="569.9" y="533" class="st9" width="8" height="14"/>
			</g>
			<g>
				<rect x="569.9" y="555" class="st9" width="8" height="14"/>
				<rect x="547.9" y="555" class="st9" width="8" height="14"/>
			</g>
			<g>
				<rect x="547.9" y="577" class="st9" width="8" height="14"/>
				<rect x="569.9" y="577" class="st9" width="8" height="14"/>
			</g>
		</g>
	</g>
	<rect x="93" y="556" class="st10" width="190" height="44"/>
	<g>
		<linearGradient id="SVGID_2_" gradientUnits="userSpaceOnUse" x1="226" y1="218.1494" x2="159.3015" y2="218.1494">
			<stop  offset="0" style="stop-color:#158CFF"/>
			<stop  offset="1" style="stop-color:#3FF6FF"/>
		</linearGradient>
		<path class="st11" d="M179.9,202.1c2.5,0,4.8,0.4,7,1.2c2.2-4.7,6.3-8.3,11.7-9.7c9.6-2.5,19.4,3.2,21.9,12.8
			c0.6,2.5,0.7,4.9,0.4,7.3c3.2,3,5.2,7.2,5.2,11.9c0,9-7.3,16.4-16.4,16.4c-5.5,0-10.4-2.7-13.4-6.9c-3.8,5-9.7,8.2-16.4,8.2
			c-11.4,0-20.6-9.2-20.6-20.6S168.5,202.1,179.9,202.1z"/>
		<linearGradient id="SVGID_3_" gradientUnits="userSpaceOnUse" x1="145.3015" y1="253.1494" x2="66" y2="253.1494">
			<stop  offset="0" style="stop-color:#158CFF"/>
			<stop  offset="1" style="stop-color:#3FF6FF"/>
		</linearGradient>
		<path class="st12" d="M120.9,234.1c-2.9,0-5.7,0.5-8.3,1.5c-2.6-5.5-7.5-9.9-13.9-11.6c-11.4-3-23,3.8-26,15.2
			c-0.8,2.9-0.9,5.8-0.4,8.6c-3.8,3.5-6.1,8.6-6.1,14.2c0,10.7,8.7,19.5,19.5,19.5c6.6,0,12.4-3.3,15.9-8.2
			c4.5,5.9,11.5,9.7,19.5,9.7c13.5,0,24.4-10.9,24.4-24.4S134.4,234.1,120.9,234.1z"/>
		<linearGradient id="SVGID_4_" gradientUnits="userSpaceOnUse" x1="293.3317" y1="260.6494" x2="239.268" y2="260.6494">
			<stop  offset="0" style="stop-color:#158CFF"/>
			<stop  offset="1" style="stop-color:#3FF6FF"/>
		</linearGradient>
		<path class="st13" d="M276.7,247.7c-2,0-3.9,0.4-5.7,1c-1.8-3.8-5.1-6.8-9.5-7.9c-7.8-2-15.7,2.6-17.7,10.4c-0.5,2-0.6,4-0.3,5.9
			c-2.6,2.4-4.2,5.9-4.2,9.7c0,7.3,5.9,13.3,13.3,13.3c4.5,0,8.4-2.2,10.8-5.6c3,4,7.9,6.6,13.3,6.6c9.2,0,16.7-7.5,16.7-16.7
			S285.9,247.7,276.7,247.7z"/>
	</g>
	<g>
		
			<linearGradient id="SVGID_5_" gradientUnits="userSpaceOnUse" x1="576" y1="166.1494" x2="655.3015" y2="166.1494" gradientTransform="matrix(-1 0 0 1 1300.3317 0)">
			<stop  offset="0" style="stop-color:#158CFF"/>
			<stop  offset="1" style="stop-color:#3FF6FF"/>
		</linearGradient>
		<path class="st14" d="M669.5,147.1c2.9,0,5.7,0.5,8.3,1.5c2.6-5.5,7.5-9.9,13.9-11.6c11.4-3,23,3.8,26,15.2
			c0.8,2.9,0.9,5.8,0.4,8.6c3.8,3.5,6.1,8.6,6.1,14.2c0,10.7-8.7,19.5-19.5,19.5c-6.6,0-12.4-3.3-15.9-8.2
			c-4.5,5.9-11.5,9.7-19.5,9.7c-13.5,0-24.4-10.9-24.4-24.4C645,158.1,656,147.1,669.5,147.1z"/>
		
			<linearGradient id="SVGID_6_" gradientUnits="userSpaceOnUse" x1="654.2228" y1="211.5214" x2="698" y2="211.5214" gradientTransform="matrix(-1 0 0 1 1300.3317 0)">
			<stop  offset="0" style="stop-color:#158CFF"/>
			<stop  offset="1" style="stop-color:#3FF6FF"/>
		</linearGradient>
		<path class="st15" d="M632.6,201c-1.6,0-3.2,0.3-4.6,0.8c-1.4-3.1-4.2-5.5-7.7-6.4c-6.3-1.6-12.7,2.1-14.4,8.4
			c-0.4,1.6-0.5,3.2-0.2,4.8c-2.1,2-3.4,4.7-3.4,7.8c0,5.9,4.8,10.7,10.7,10.7c3.6,0,6.8-1.8,8.8-4.5c2.5,3.3,6.4,5.4,10.8,5.4
			c7.5,0,13.5-6,13.5-13.5S640.1,201,632.6,201z"/>
		
			<linearGradient id="SVGID_7_" gradientUnits="userSpaceOnUse" x1="686.4338" y1="147.1494" x2="784.3317" y2="147.1494" gradientTransform="matrix(-1 0 0 1 1300.3317 0)">
			<stop  offset="0" style="stop-color:#158CFF"/>
			<stop  offset="1" style="stop-color:#3FF6FF"/>
		</linearGradient>
		<path class="st16" d="M546.2,123.7c3.6,0,7.1,0.6,10.3,1.8c3.2-6.8,9.3-12.2,17.2-14.3c14.1-3.7,28.5,4.7,32.1,18.8
			c0.9,3.6,1.1,7.2,0.6,10.7c4.7,4.4,7.6,10.6,7.6,17.5c0,13.3-10.8,24-24,24c-8.1,0-15.3-4-19.6-10.2c-5.5,7.3-14.3,12-24.1,12
			c-16.7,0-30.2-13.5-30.2-30.2S529.5,123.7,546.2,123.7z"/>
	</g>
	<rect x="483.5" y="468.5" class="st17" width="55" height="131.5"/>
	<g>
		<g>
			<path class="st2" d="M503,559h-6c-1.9,0-3.5-1.6-3.5-3.5v-5c0-1.9,1.6-3.5,3.5-3.5h6c1.9,0,3.5,1.6,3.5,3.5v5
				C506.5,557.4,504.9,559,503,559z"/>
			<path class="st2" d="M525,559h-6c-1.9,0-3.5-1.6-3.5-3.5v-5c0-1.9,1.6-3.5,3.5-3.5h6c1.9,0,3.5,1.6,3.5,3.5v5
				C528.5,557.4,526.9,559,525,559z"/>
		</g>
		<g>
			<path class="st2" d="M503,581h-6c-1.9,0-3.5-1.6-3.5-3.5v-5c0-1.9,1.6-3.5,3.5-3.5h6c1.9,0,3.5,1.6,3.5,3.5v5
				C506.5,579.4,504.9,581,503,581z"/>
			<path class="st2" d="M525,581h-6c-1.9,0-3.5-1.6-3.5-3.5v-5c0-1.9,1.6-3.5,3.5-3.5h6c1.9,0,3.5,1.6,3.5,3.5v5
				C528.5,579.4,526.9,581,525,581z"/>
		</g>
		<g>
			<path class="st2" d="M503,537h-6c-1.9,0-3.5-1.6-3.5-3.5v-5c0-1.9,1.6-3.5,3.5-3.5h6c1.9,0,3.5,1.6,3.5,3.5v5
				C506.5,535.4,504.9,537,503,537z"/>
			<path class="st2" d="M525,537h-6c-1.9,0-3.5-1.6-3.5-3.5v-5c0-1.9,1.6-3.5,3.5-3.5h6c1.9,0,3.5,1.6,3.5,3.5v5
				C528.5,535.4,526.9,537,525,537z"/>
		</g>
		<g>
			<path class="st2" d="M503,515h-6c-1.9,0-3.5-1.6-3.5-3.5v-5c0-1.9,1.6-3.5,3.5-3.5h6c1.9,0,3.5,1.6,3.5,3.5v5
				C506.5,513.4,504.9,515,503,515z"/>
			<path class="st2" d="M525,515h-6c-1.9,0-3.5-1.6-3.5-3.5v-5c0-1.9,1.6-3.5,3.5-3.5h6c1.9,0,3.5,1.6,3.5,3.5v5
				C528.5,513.4,526.9,515,525,515z"/>
		</g>
		<g>
			<path class="st2" d="M503,493h-6c-1.9,0-3.5-1.6-3.5-3.5v-5c0-1.9,1.6-3.5,3.5-3.5h6c1.9,0,3.5,1.6,3.5,3.5v5
				C506.5,491.4,504.9,493,503,493z"/>
			<path class="st2" d="M525,493h-6c-1.9,0-3.5-1.6-3.5-3.5v-5c0-1.9,1.6-3.5,3.5-3.5h6c1.9,0,3.5,1.6,3.5,3.5v5
				C528.5,491.4,526.9,493,525,493z"/>
		</g>
	</g>
	<g>
		<rect x="52" y="484.5" class="st3" width="61" height="115.5"/>
		<g>
			<g>
				<path class="st2" d="M74.5,571h-6c-1.9,0-3.5-1.6-3.5-3.5v-5c0-1.9,1.6-3.5,3.5-3.5h6c1.9,0,3.5,1.6,3.5,3.5v5
					C78,569.4,76.4,571,74.5,571z"/>
				<path class="st2" d="M96.5,571h-6c-1.9,0-3.5-1.6-3.5-3.5v-5c0-1.9,1.6-3.5,3.5-3.5h6c1.9,0,3.5,1.6,3.5,3.5v5
					C100,569.4,98.4,571,96.5,571z"/>
			</g>
			<g>
				<path class="st2" d="M74.5,593h-6c-1.9,0-3.5-1.6-3.5-3.5v-5c0-1.9,1.6-3.5,3.5-3.5h6c1.9,0,3.5,1.6,3.5,3.5v5
					C78,591.4,76.4,593,74.5,593z"/>
				<path class="st2" d="M96.5,593h-6c-1.9,0-3.5-1.6-3.5-3.5v-5c0-1.9,1.6-3.5,3.5-3.5h6c1.9,0,3.5,1.6,3.5,3.5v5
					C100,591.4,98.4,593,96.5,593z"/>
			</g>
			<g>
				<path class="st2" d="M74.5,549h-6c-1.9,0-3.5-1.6-3.5-3.5v-5c0-1.9,1.6-3.5,3.5-3.5h6c1.9,0,3.5,1.6,3.5,3.5v5
					C78,547.4,76.4,549,74.5,549z"/>
				<path class="st2" d="M96.5,549h-6c-1.9,0-3.5-1.6-3.5-3.5v-5c0-1.9,1.6-3.5,3.5-3.5h6c1.9,0,3.5,1.6,3.5,3.5v5
					C100,547.4,98.4,549,96.5,549z"/>
			</g>
			<g>
				<path class="st2" d="M74.5,527h-6c-1.9,0-3.5-1.6-3.5-3.5v-5c0-1.9,1.6-3.5,3.5-3.5h6c1.9,0,3.5,1.6,3.5,3.5v5
					C78,525.4,76.4,527,74.5,527z"/>
				<path class="st2" d="M96.5,527h-6c-1.9,0-3.5-1.6-3.5-3.5v-5c0-1.9,1.6-3.5,3.5-3.5h6c1.9,0,3.5,1.6,3.5,3.5v5
					C100,525.4,98.4,527,96.5,527z"/>
			</g>
			<g>
				<path class="st2" d="M74.5,505h-6c-1.9,0-3.5-1.6-3.5-3.5v-5c0-1.9,1.6-3.5,3.5-3.5h6c1.9,0,3.5,1.6,3.5,3.5v5
					C78,503.4,76.4,505,74.5,505z"/>
				<path class="st2" d="M96.5,505h-6c-1.9,0-3.5-1.6-3.5-3.5v-5c0-1.9,1.6-3.5,3.5-3.5h6c1.9,0,3.5,1.6,3.5,3.5v5
					C100,503.4,98.4,505,96.5,505z"/>
			</g>
		</g>
	</g>
</g>
<g id="windows">
	<rect x="654.4" y="425.5" class="st18" width="93" height="174.5"/>
	<g>
		<g>
			<rect x="670.2" y="447.5" class="st19" width="14.6" height="7.8"/>
			<rect x="693.6" y="447.5" class="st19" width="14.6" height="7.8"/>
			<rect x="717" y="447.5" class="st19" width="14.6" height="7.8"/>
		</g>
		<g>
			<rect x="670.2" y="469.8" class="st19" width="14.6" height="7.8"/>
			<rect x="693.6" y="469.8" class="st19" width="14.6" height="7.8"/>
			<rect x="717" y="469.8" class="st19" width="14.6" height="7.8"/>
		</g>
		<g>
			<rect x="670.2" y="492.1" class="st19" width="14.6" height="7.8"/>
			<rect x="693.6" y="492.1" class="st19" width="14.6" height="7.8"/>
			<rect x="717" y="492.1" class="st19" width="14.6" height="7.8"/>
		</g>
		<g>
			<rect x="670.2" y="514.4" class="st19" width="14.6" height="7.8"/>
			<rect x="693.6" y="514.4" class="st19" width="14.6" height="7.8"/>
			<rect x="717" y="514.4" class="st19" width="14.6" height="7.8"/>
		</g>
		<g>
			<rect x="670.2" y="536.6" class="st19" width="14.6" height="7.8"/>
			<rect x="693.6" y="536.6" class="st19" width="14.6" height="7.8"/>
			<rect x="717" y="536.6" class="st19" width="14.6" height="7.8"/>
		</g>
		<g>
			<rect x="670.2" y="558.9" class="st19" width="14.6" height="7.8"/>
			<rect x="693.6" y="558.9" class="st19" width="14.6" height="7.8"/>
			<rect x="717" y="558.9" class="st19" width="14.6" height="7.8"/>
		</g>
		<g>
			<rect x="670.2" y="581.2" class="st19" width="14.6" height="7.8"/>
			<rect x="693.6" y="581.2" class="st19" width="14.6" height="7.8"/>
			<rect x="717" y="581.2" class="st19" width="14.6" height="7.8"/>
		</g>
	</g>
	<g>
		<rect x="260.8" y="468.5" class="st3" width="61" height="131.5"/>
		<g>
			<g>
				<rect x="267.6" y="479.8" class="st20" width="11.3" height="6"/>
				<rect x="285.6" y="479.8" class="st20" width="11.3" height="6"/>
				<rect x="303.6" y="479.8" class="st20" width="11.3" height="6"/>
			</g>
			<g>
				<rect x="267.6" y="496.9" class="st20" width="11.3" height="6"/>
				<rect x="285.6" y="496.9" class="st20" width="11.3" height="6"/>
				<rect x="303.6" y="496.9" class="st20" width="11.3" height="6"/>
			</g>
			<g>
				<rect x="267.6" y="514.1" class="st20" width="11.3" height="6"/>
				<rect x="285.6" y="514.1" class="st20" width="11.3" height="6"/>
				<rect x="303.6" y="514.1" class="st20" width="11.3" height="6"/>
			</g>
			<g>
				<rect x="267.6" y="531.3" class="st20" width="11.3" height="6"/>
				<rect x="285.6" y="531.3" class="st20" width="11.3" height="6"/>
				<rect x="303.6" y="531.3" class="st20" width="11.3" height="6"/>
			</g>
			<g>
				<rect x="267.6" y="548.4" class="st20" width="11.3" height="6"/>
				<rect x="285.6" y="548.4" class="st20" width="11.3" height="6"/>
				<rect x="303.6" y="548.4" class="st20" width="11.3" height="6"/>
			</g>
			<g>
				<rect x="267.6" y="565.6" class="st20" width="11.3" height="6"/>
				<rect x="285.6" y="565.6" class="st20" width="11.3" height="6"/>
				<rect x="303.6" y="565.6" class="st20" width="11.3" height="6"/>
			</g>
			<g>
				<rect x="267.6" y="582.8" class="st20" width="11.3" height="6"/>
				<rect x="285.6" y="582.8" class="st20" width="11.3" height="6"/>
				<rect x="303.6" y="582.8" class="st20" width="11.3" height="6"/>
			</g>
		</g>
	</g>
	<path class="st21" d="M429.5,423h-59c-14.4,0-26-11.6-26-26v0c0-14.4,11.6-26,26-26h59c14.4,0,26,11.6,26,26v0
		C455.5,411.4,443.9,423,429.5,423z"/>
	<path class="st22" d="M429,435h-59c-3.3,0-6-2.7-6-6l0,0c0-3.3,2.7-6,6-6h59c3.3,0,6,2.7,6,6l0,0C435,432.3,432.3,435,429,435z"/>
	<path class="st22" d="M422,371h-43c-6.1,0-11-4.9-11-11l0,0c0-6.1,4.9-11,11-11h43c6.1,0,11,4.9,11,11l0,0
		C433,366.1,428.1,371,422,371z"/>
	<g>
		<rect x="584.6" y="499" class="st3" width="76" height="101"/>
		<g>
			<g>
				<rect x="596.8" y="512" class="st23" width="12.3" height="6.6"/>
				<rect x="616.5" y="512" class="st23" width="12.3" height="6.6"/>
				<rect x="636.2" y="512" class="st23" width="12.3" height="6.6"/>
			</g>
			<g>
				<rect x="596.8" y="530.8" class="st23" width="12.3" height="6.6"/>
				<rect x="616.5" y="530.8" class="st23" width="12.3" height="6.6"/>
				<rect x="636.2" y="530.8" class="st23" width="12.3" height="6.6"/>
			</g>
			<g>
				<rect x="596.8" y="549.6" class="st23" width="12.3" height="6.6"/>
				<rect x="616.5" y="549.6" class="st23" width="12.3" height="6.6"/>
				<rect x="636.2" y="549.6" class="st23" width="12.3" height="6.6"/>
			</g>
			<g>
				<rect x="596.8" y="568.4" class="st23" width="12.3" height="6.6"/>
				<rect x="616.5" y="568.4" class="st23" width="12.3" height="6.6"/>
				<rect x="636.2" y="568.4" class="st23" width="12.3" height="6.6"/>
			</g>
			<g>
				<rect x="596.8" y="587.2" class="st23" width="12.3" height="6.6"/>
				<rect x="616.5" y="587.2" class="st23" width="12.3" height="6.6"/>
				<rect x="636.2" y="587.2" class="st23" width="12.3" height="6.6"/>
			</g>
		</g>
	</g>
</g>
</svg>
