<?xml version="1.0" encoding="utf-8"?>
<!-- Generator: Adobe Illustrator 21.1.0, SVG Export Plug-In . SVG Version: 6.00 Build 0)  -->
<svg version="1.1" id="Layer_1" xmlns="http://www.w3.org/2000/svg" xmlns:xlink="http://www.w3.org/1999/xlink" x="0px" y="0px"
	 viewBox="0 0 76.7 69.4" style="enable-background:new 0 0 76.7 69.4;" xml:space="preserve">
<style type="text/css">
	.st0{fill:none;stroke:#FF8921;stroke-width:2;stroke-miterlimit:10;}
	.st1{fill:#FF8921;}
</style>
<line class="st0" x1="36" y1="35.4" x2="50.3" y2="31.5"/>
<g>
	<path class="st1" d="M20,57.9c-0.2,0-0.5-0.1-0.6-0.3c-0.4-0.4-0.4-0.9,0-1.3c0.2-0.2,0.5-1.2,0.5-1.9c-6.1-30.3-3.2-40.4-3-40.8
		c0.1-0.5,0.7-0.8,1.1-0.6c0.5,0.1,0.7,0.7,0.6,1.1l0,0c0,0.1-2.9,10.2,3.1,40c0,0.1,0,0.2,0,0.2c0,0.4-0.2,2.3-1.1,3.2
		C20.5,57.8,20.2,57.9,20,57.9z"/>
	<path class="st1" d="M22.5,34.9c-0.2,0-0.4-0.1-0.6-0.2c-0.4-0.3-0.4-0.9-0.1-1.3c4.4-5,8.3-10.5,11.5-16.4c2.9-5.4,0.9-9.8-2-12.1
		c-3.5-2.8-9.6-3.7-14.8,0.8C6.1,14.9,2.6,26.9,2.6,27c-0.1,0.5-0.6,0.8-1.1,0.6C1,27.5,0.7,27,0.9,26.5C1,26,4.5,13.9,15.4,4.3
		c5.9-5.2,13-4.1,17.1-0.9c4.4,3.5,5.3,9.1,2.5,14.4c-3.3,6-7.2,11.7-11.7,16.8C23,34.8,22.8,34.9,22.5,34.9z"/>
	<path class="st1" d="M35.8,44.4c-1.1,0-2.1-0.7-2.5-1.1c-0.4-0.4-7-5.4-11.4-8.6c-0.4-0.3-0.5-0.9-0.2-1.3c0.3-0.4,0.9-0.5,1.3-0.2
		c3.4,2.5,11.2,8.5,11.6,8.8c0.2,0.1,0.9,0.6,1.4,0.5c0.4-0.1,0.7-0.7,0.9-1.5c0.2-0.9,0.3-2.3,0.4-3.8c-0.8-0.3-1.5-0.7-2.2-0.9
		c-0.5-0.2-0.7-0.7-0.5-1.2s0.7-0.7,1.2-0.5l1.5,0.7c0-0.4,0-0.8,0.1-1.3c0.3-6.2,0.5-7.6,1.6-8c0.4-0.2,0.9,0,1.2,0.3
		c0.9,0.9,1.9,4.1,3.2,8.5c0.5,1.6,1,3.3,1.2,3.7c0.2,0.2,0.3,0.5,0.2,0.9c-0.2,0.5-0.8,0.7-1.2,0.5c0,0,0,0-0.1,0
		c-0.4-0.2-2.3-1-4.4-1.9c-0.1,1.4-0.2,2.6-0.4,3.5c-0.4,1.6-1.1,2.6-2.2,2.9C36.3,44.4,36,44.4,35.8,44.4z M44.3,38.3
		c0.1,0.1,0.2,0.1,0.3,0.2C44.6,38.5,44.5,38.4,44.3,38.3L44.3,38.3z M39.2,36l3.1,1.4c-0.2-0.5-0.4-1.2-0.6-2
		c-0.5-1.8-1.3-4.6-2-6.3c-0.2,1.4-0.3,3.4-0.4,5.1C39.3,34.7,39.3,35.4,39.2,36z"/>
	<path class="st1" d="M48.6,68.7c-0.3,0-0.7,0-1-0.1c-5.2-0.9-11.5-5.8-11.5-10.5c0-4.2,2.8-5.4,4.3-6c0.1,0,0.2-0.1,0.3-0.1
		c0.5-0.2,1,0,1.2,0.5s0,1-0.5,1.2c-0.1,0-0.2,0.1-0.3,0.1c-1.4,0.6-3.2,1.3-3.2,4.4c0,3.4,5.1,7.8,10,8.7c1.2,0.2,1.7-0.1,2-0.3
		c1.8-1.7,1.1-8.8-0.3-20.3c-1.3-10-0.3-17.1,0.8-21.2c-2.2,1.3-4.7,1.9-4.8,1.9c-0.5,0.1-1-0.2-1.1-0.7s0.2-1,0.7-1.1
		c1.4-0.3,5-1.5,6.3-3.6c0.2-0.5,0.3-0.8,0.4-0.9c0.2-0.4,0.7-0.6,1.2-0.4c0.4,0.2,0.7,0.7,0.5,1.1c-0.1,0.3-0.2,0.7-0.4,1
		c-0.9,2.5-3.4,10.5-1.9,23.6C53,59.8,53.4,65.6,51,67.9C50.4,68.4,49.6,68.7,48.6,68.7z"/>
	<path class="st1" d="M55.4,40.3c-0.1,0-0.3,0-0.4-0.1c-0.5-0.2-0.6-0.8-0.4-1.2c0,0,0.8-1.6,1.6-4l-2.4-0.6
		c-0.4-0.1-0.7-0.5-0.7-0.9s0.3-0.8,0.7-0.9c0,0,1.5-0.3,3.3-1.1c0.7-3.3,1.3-7.3,0.8-11.3c-0.1-0.5,0.3-0.9,0.8-1s0.9,0.2,1,0.7
		l1.7,8.8c1-1,1.8-2.2,2.2-3.7c0.1-0.7,0.4-1.8,1.4-1.7c0.9,0.1,1,1.1,1.1,2.9c0,1.1,0,2.1,0,2.2c-0.1,3-0.3,6.2-0.3,6.3
		c0,0.5-0.5,0.9-1,0.9s-0.9-0.5-0.9-1c0,0,0.2-3.3,0.3-6.2c0-0.1,0-0.2,0-0.4c-0.7,1.1-1.5,2-2.5,2.8l0.8,4.4c0.1,0.3,0,0.6-0.3,0.8
		c-0.2,0.2-0.5,0.3-0.8,0.2l-3.6-0.9c-0.8,2.6-1.6,4.2-1.7,4.4C56,40.1,55.7,40.3,55.4,40.3z M58.4,33.7l2.1,0.5L60.1,32
		c-0.5,0.3-1,0.6-1.4,0.8C58.6,33.1,58.5,33.4,58.4,33.7z M59.5,28.7c-0.1,0.6-0.2,1.1-0.3,1.6c0.2-0.1,0.4-0.2,0.5-0.3L59.5,28.7z
		 M65.5,24.7L65.5,24.7L65.5,24.7z"/>
	<path class="st1" d="M71.7,34.7c-0.3,0-0.7-0.1-1-0.2c-2.3-0.8-6.3-3-6.7-10c0-0.5,0.4-0.9,0.9-1c0.5,0,0.9,0.4,1,0.9
		c0.3,5.8,3.5,7.7,5.4,8.3c0.6,0.2,1.2,0,1.5-0.5c3.5-5.6-1.5-15.2-1.5-15.3c-0.2-0.4-0.1-1,0.4-1.2c0.4-0.2,1-0.1,1.2,0.4
		c0.2,0.4,5.5,10.6,1.5,17.1C73.7,34.2,72.7,34.7,71.7,34.7z"/>
</g>
</svg>
